<svg width="200" height="200" viewBox="0 0 200 200" fill="none" xmlns="http://www.w3.org/2000/svg">
<path d="M195.699 4.55149C195.679 5.76254 196.635 6.75876 197.82 6.77829C199.006 6.79783 199.981 5.82114 200 4.61009C200.019 3.39904 199.063 2.40288 197.878 2.38334C196.673 2.36381 195.699 3.34044 195.699 4.55149Z" fill="#E1D1C2"/>
<path d="M176.352 4.31711C176.333 5.52817 177.289 6.52432 178.474 6.54386C179.659 6.56339 180.634 5.58676 180.653 4.37571C180.672 3.16466 179.716 2.16844 178.531 2.14891C177.327 2.12938 176.371 3.10606 176.352 4.31711Z" fill="#E1D1C2"/>
<path d="M157.006 4.08268C156.987 5.29373 157.943 6.28989 159.128 6.30942C160.313 6.32895 161.288 5.35233 161.307 4.14128C161.327 2.93022 160.371 1.93401 159.185 1.91447C158 1.89494 157.025 2.87163 157.006 4.08268Z" fill="#E1D1C2"/>
<path d="M137.679 3.8483C137.66 5.05936 138.616 6.05551 139.801 6.07505C140.986 6.09458 141.961 5.11795 141.98 3.9069C141.999 2.69585 141.044 1.69963 139.858 1.6801C138.654 1.66056 137.679 2.63725 137.679 3.8483Z" fill="#E1D1C2"/>
<path d="M118.333 3.59435C118.314 4.80541 119.27 5.80156 120.455 5.8211C121.64 5.84063 122.615 4.864 122.635 3.65295C122.654 2.4419 121.698 1.44568 120.513 1.42615C119.327 1.42615 118.352 2.3833 118.333 3.59435Z" fill="#E1D1C2"/>
<path d="M98.9866 3.35996C98.9675 4.57101 99.9233 5.56717 101.109 5.5867C102.294 5.60624 103.269 4.62961 103.288 3.41856C103.307 2.20751 102.351 1.21129 101.166 1.19176C99.9807 1.17222 99.0057 2.14891 98.9866 3.35996Z" fill="#E1D1C2"/>
<path d="M79.6595 3.12553C79.6403 4.33658 80.5962 5.3328 81.7814 5.35233C82.9666 5.37186 83.9416 4.39518 83.9607 3.18412C83.9798 1.97307 83.024 0.976913 81.8388 0.95738C80.6344 0.937847 79.6595 1.91447 79.6595 3.12553Z" fill="#E1D1C2"/>
<path d="M60.3138 2.89115C60.2946 4.1022 61.2505 5.09842 62.4357 5.11795C63.6209 5.13749 64.5959 4.1608 64.615 2.94975C64.6341 1.7387 63.6783 0.742538 62.4931 0.723005C61.2887 0.703472 60.3329 1.6801 60.3138 2.89115Z" fill="#E1D1C2"/>
<path d="M40.9671 2.6372C40.948 3.84825 41.9038 4.84447 43.089 4.864C44.2742 4.88354 45.2492 3.90685 45.2683 2.6958C45.2875 1.48475 44.3316 0.488588 43.1464 0.469055C41.9611 0.469055 40.9862 1.42615 40.9671 2.6372Z" fill="#E1D1C2"/>
<path d="M21.6214 2.40283C21.6023 3.61388 22.5581 4.6101 23.7434 4.62963C24.9286 4.64916 25.9035 3.67248 25.9226 2.46142C25.9418 1.25037 24.9859 0.254213 23.8007 0.23468C22.6155 0.23468 21.6405 1.19177 21.6214 2.40283Z" fill="#E1D1C2"/>
<path d="M2.29423 2.16843C2.27511 3.37949 3.23092 4.3757 4.41616 4.39524C5.60139 4.41477 6.57638 3.43808 6.59549 2.22703C6.61461 1.01598 5.65874 0.0198211 4.4735 0.000287982C3.28827 -0.0192451 2.31334 0.957382 2.29423 2.16843Z" fill="#E1D1C2"/>
<path d="M195.489 22.1117C195.469 23.3228 196.425 24.319 197.611 24.3386C198.796 24.3581 199.771 23.3814 199.79 22.1703C199.809 20.9593 198.853 19.9631 197.668 19.9436C196.464 19.9436 195.508 20.9007 195.489 22.1117Z" fill="#E1D1C2"/>
<path d="M176.142 21.8774C176.123 23.0884 177.079 24.0846 178.264 24.1042C179.449 24.1237 180.424 23.147 180.443 21.936C180.462 20.7249 179.506 19.7287 178.321 19.7092C177.136 19.6897 176.161 20.6663 176.142 21.8774Z" fill="#E1D1C2"/>
<path d="M156.796 21.6429C156.777 22.854 157.733 23.8502 158.918 23.8697C160.103 23.8893 161.078 22.9126 161.097 21.7015C161.117 20.4905 160.161 19.4943 158.976 19.4748C157.79 19.4552 156.815 20.4319 156.796 21.6429Z" fill="#E1D1C2"/>
<path d="M137.469 21.4085C137.45 22.6196 138.406 23.6158 139.591 23.6353C140.776 23.6548 141.751 22.6782 141.77 21.4671C141.789 20.2561 140.834 19.2599 139.648 19.2403C138.444 19.2208 137.469 20.1975 137.469 21.4085Z" fill="#E1D1C2"/>
<path d="M118.123 21.1742C118.104 22.3852 119.06 23.3814 120.245 23.4009C121.43 23.4204 122.405 22.4438 122.425 21.2328C122.444 20.0217 121.488 19.0255 120.303 19.006C119.117 18.9864 118.142 19.9631 118.123 21.1742Z" fill="#E1D1C2"/>
<path d="M98.7766 20.9398C98.7575 22.1509 99.7133 23.147 100.899 23.1665C102.084 23.1861 103.059 22.2095 103.078 20.9984C103.097 19.7873 102.141 18.7911 100.956 18.7716C99.7707 18.7521 98.7958 19.7092 98.7766 20.9398Z" fill="#E1D1C2"/>
<path d="M79.4495 20.6858C79.4304 21.8969 80.3862 22.893 81.5714 22.9126C82.7567 22.9321 83.7316 21.9555 83.7508 20.7444C83.7699 19.5334 82.814 18.5372 81.6287 18.5176C80.4244 18.4981 79.4495 19.4748 79.4495 20.6858Z" fill="#E1D1C2"/>
<path d="M60.1038 20.4515C60.0847 21.6625 61.0405 22.6587 62.2257 22.6782C63.411 22.6977 64.3859 21.7211 64.4051 20.51C64.4242 19.299 63.4683 18.3028 62.283 18.2832C61.0978 18.2637 60.1229 19.2404 60.1038 20.4515Z" fill="#E1D1C2"/>
<path d="M40.7571 20.217C40.738 21.4281 41.6939 22.4243 42.8791 22.4438C44.0643 22.4634 45.0393 21.4867 45.0584 20.2756C45.0775 19.0646 44.1217 18.0684 42.9365 18.0489C41.7512 18.0293 40.7762 19.006 40.7571 20.217Z" fill="#E1D1C2"/>
<path d="M21.43 19.9826C21.4109 21.1937 22.3667 22.1899 23.5519 22.2095C24.7371 22.229 25.7121 21.2523 25.7312 20.0412C25.7504 18.8302 24.7945 17.834 23.6092 17.8145C22.4049 17.795 21.43 18.7521 21.43 19.9826Z" fill="#E1D1C2"/>
<path d="M2.08427 19.7287C2.06515 20.9397 3.02102 21.936 4.20625 21.9555C5.39149 21.975 6.36642 20.9983 6.38553 19.7873C6.40465 18.5762 5.44884 17.5801 4.2636 17.5605C3.07836 17.5605 2.10338 18.5176 2.08427 19.7287Z" fill="#E1D1C2"/>
<path d="M195.278 39.6915C195.259 40.9026 196.214 41.8988 197.4 41.9183C198.585 41.9378 199.56 40.9612 199.579 39.7501C199.598 38.539 198.642 37.5429 197.457 37.5234C196.272 37.5038 195.297 38.4805 195.278 39.6915Z" fill="#E1D1C2"/>
<path d="M175.931 39.4571C175.912 40.6682 176.868 41.6644 178.053 41.6839C179.238 41.7035 180.213 40.7268 180.232 39.5157C180.251 38.3047 179.296 37.3085 178.11 37.289C176.925 37.2695 175.95 38.2266 175.931 39.4571Z" fill="#E1D1C2"/>
<path d="M156.604 39.2032C156.585 40.4142 157.54 41.4104 158.726 41.43C159.911 41.4495 160.886 40.4728 160.905 39.2618C160.924 38.0507 159.968 37.0546 158.783 37.035C157.579 37.035 156.604 37.9921 156.604 39.2032Z" fill="#E1D1C2"/>
<path d="M137.258 38.9688C137.239 40.1798 138.195 41.1761 139.38 41.1956C140.565 41.2151 141.54 40.2384 141.559 39.0274C141.578 37.8163 140.623 36.8202 139.437 36.8006C138.233 36.7811 137.277 37.7577 137.258 38.9688Z" fill="#E1D1C2"/>
<path d="M117.912 38.7344C117.893 39.9455 118.849 40.9417 120.034 40.9612C121.22 40.9807 122.195 40.0041 122.214 38.793C122.233 37.582 121.277 36.5858 120.092 36.5663C118.906 36.5467 117.932 37.5234 117.912 38.7344Z" fill="#E1D1C2"/>
<path d="M98.5657 38.5C98.5466 39.711 99.5024 40.7072 100.688 40.7267C101.873 40.7463 102.848 39.7696 102.867 38.5586C102.886 37.3475 101.93 36.3513 100.745 36.3318C99.5597 36.3122 98.5848 37.2889 98.5657 38.5Z" fill="#E1D1C2"/>
<path d="M79.2386 38.2461C79.2194 39.4571 80.1754 40.4534 81.3606 40.4729C82.5458 40.4924 83.5207 39.5157 83.5398 38.3047C83.5589 37.0936 82.6031 36.0975 81.4179 36.0779C80.2135 36.0779 79.2577 37.035 79.2386 38.2461Z" fill="#E1D1C2"/>
<path d="M59.8929 38.0117C59.8737 39.2227 60.8297 40.2189 62.0149 40.2384C63.2001 40.258 64.175 39.2813 64.1941 38.0703C64.2132 36.8592 63.2574 35.863 62.0722 35.8435C60.887 35.824 59.912 36.8006 59.8929 38.0117Z" fill="#E1D1C2"/>
<path d="M40.5462 37.7773C40.5271 38.9883 41.4829 39.9845 42.6681 40.004C43.8533 40.0235 44.8283 39.0469 44.8474 37.8359C44.8666 36.6248 43.9107 35.6286 42.7255 35.6091C41.5402 35.5895 40.5653 36.5662 40.5462 37.7773Z" fill="#E1D1C2"/>
<path d="M21.219 37.5429C21.1999 38.7539 22.1558 39.7501 23.341 39.7696C24.5263 39.7892 25.5012 38.8125 25.5203 37.6015C25.5394 36.3904 24.5836 35.3942 23.3984 35.3747C22.194 35.3551 21.2381 36.3318 21.219 37.5429Z" fill="#E1D1C2"/>
<path d="M1.87333 37.3084C1.85421 38.5195 2.81002 39.5157 3.99526 39.5353C5.1805 39.5548 6.15548 38.5781 6.17459 37.367C6.19371 36.156 5.23784 35.1598 4.05261 35.1403C2.86737 35.1208 1.89245 36.0974 1.87333 37.3084Z" fill="#E1D1C2"/>
<path d="M195.068 57.2518C195.049 58.4629 196.004 59.459 197.19 59.4785C198.375 59.4981 199.35 58.5215 199.369 57.3104C199.388 56.0994 198.432 55.1031 197.247 55.0836C196.062 55.0641 195.087 56.0408 195.068 57.2518Z" fill="#E1D1C2"/>
<path d="M175.721 57.0174C175.702 58.2285 176.658 59.2246 177.843 59.2442C179.028 59.2637 180.003 58.2871 180.022 57.076C180.041 55.865 179.086 54.8688 177.9 54.8492C176.715 54.8297 175.74 55.8064 175.721 57.0174Z" fill="#E1D1C2"/>
<path d="M156.395 56.7829C156.376 57.994 157.332 58.9902 158.517 59.0097C159.702 59.0293 160.677 58.0526 160.696 56.8415C160.715 55.6305 159.759 54.6343 158.574 54.6148C157.37 54.5953 156.395 55.5719 156.395 56.7829Z" fill="#E1D1C2"/>
<path d="M137.048 56.5486C137.029 57.7596 137.985 58.7558 139.17 58.7754C140.355 58.7754 141.33 57.8182 141.349 56.6071C141.369 55.3961 140.413 54.3999 139.227 54.3804C138.042 54.3413 137.067 55.318 137.048 56.5486Z" fill="#E1D1C2"/>
<path d="M117.702 56.2947C117.683 57.5057 118.639 58.5019 119.824 58.5215C121.01 58.541 121.985 57.5643 122.004 56.3533C122.023 55.1422 121.067 54.146 119.882 54.1265C118.696 54.107 117.722 55.0836 117.702 56.2947Z" fill="#E1D1C2"/>
<path d="M98.3753 56.0602C98.3562 57.2713 99.3121 58.2675 100.497 58.287C101.683 58.3066 102.657 57.3299 102.677 56.1188C102.696 54.9078 101.74 53.9116 100.555 53.8921C99.3503 53.8725 98.3753 54.8492 98.3753 56.0602Z" fill="#E1D1C2"/>
<path d="M79.0286 55.8258C79.0095 57.0369 79.9653 58.0331 81.1505 58.0526C82.3358 58.0722 83.3108 57.0955 83.3299 55.8844C83.349 54.6734 82.3932 53.6772 81.2079 53.6577C80.0227 53.6382 79.0477 54.6148 79.0286 55.8258Z" fill="#E1D1C2"/>
<path d="M59.6829 55.5915C59.6638 56.8025 60.6196 57.7987 61.8048 57.8182C62.9901 57.8377 63.965 56.8611 63.9842 55.6501C64.0033 54.439 63.0475 53.4428 61.8622 53.4233C60.677 53.4037 59.702 54.3804 59.6829 55.5915Z" fill="#E1D1C2"/>
<path d="M40.3558 55.3375C40.3366 56.5486 41.2924 57.5448 42.4777 57.5643C43.6629 57.5839 44.6379 56.6072 44.657 55.3961C44.6761 54.1851 43.7203 53.1889 42.535 53.1694C41.3307 53.1694 40.3558 54.1265 40.3558 55.3375Z" fill="#E1D1C2"/>
<path d="M21.0091 55.1031C20.99 56.3142 21.9458 57.3103 23.131 57.3299C24.3162 57.3494 25.2912 56.3728 25.3103 55.1617C25.3295 53.9507 24.3736 52.9545 23.1883 52.9349C22.0031 52.9154 21.0282 53.8921 21.0091 55.1031Z" fill="#E1D1C2"/>
<path d="M1.66337 54.8688C1.64425 56.0798 2.60012 57.076 3.78536 57.0955C4.97059 57.115 5.94552 56.1384 5.96463 54.9273C5.98375 53.7163 5.02794 52.7201 3.8427 52.7005C2.65747 52.681 1.68248 53.6577 1.66337 54.8688Z" fill="#E1D1C2"/>
<path d="M194.858 74.8121C194.839 76.0231 195.794 77.0193 196.98 77.0389C198.165 77.0584 199.14 76.0817 199.159 74.8707C199.178 73.6596 198.222 72.6635 197.037 72.6439C195.852 72.6439 194.877 73.601 194.858 74.8121Z" fill="#E1D1C2"/>
<path d="M175.511 74.5777C175.492 75.7887 176.448 76.7849 177.633 76.8044C178.818 76.8239 179.793 75.8473 179.812 74.6363C179.831 73.4252 178.875 72.429 177.69 72.4095C176.505 72.3899 175.53 73.3666 175.511 74.5777Z" fill="#E1D1C2"/>
<path d="M156.184 74.3432C156.165 75.5543 157.121 76.5504 158.306 76.57C159.491 76.5895 160.466 75.6129 160.485 74.4018C160.504 73.1908 159.548 72.1946 158.363 72.175C157.159 72.1555 156.184 73.1322 156.184 74.3432Z" fill="#E1D1C2"/>
<path d="M136.838 74.1089C136.819 75.3199 137.775 76.3161 138.96 76.3356C140.145 76.3551 141.12 75.3785 141.139 74.1675C141.159 72.9564 140.203 71.9602 139.018 71.9407C137.832 71.9211 136.857 72.8783 136.838 74.1089Z" fill="#E1D1C2"/>
<path d="M117.492 73.8549C117.473 75.066 118.429 76.0621 119.615 76.0817C120.8 76.1012 121.775 75.1246 121.794 73.9135C121.813 72.7025 120.857 71.7062 119.672 71.6867C118.487 71.6867 117.512 72.6439 117.492 73.8549Z" fill="#E1D1C2"/>
<path d="M98.1653 73.6205C98.1462 74.8316 99.102 75.8277 100.287 75.8473C101.472 75.8668 102.447 74.8902 102.467 73.6791C102.486 72.4681 101.53 71.4718 100.345 71.4523C99.1403 71.4328 98.1844 72.4095 98.1653 73.6205Z" fill="#E1D1C2"/>
<path d="M78.8186 73.3861C78.7995 74.5971 79.7553 75.5934 80.9406 75.6129C82.1258 75.6324 83.1008 74.6557 83.1199 73.4447C83.139 72.2336 82.1832 71.2375 80.998 71.2179C79.8127 71.1984 78.8378 72.175 78.8186 73.3861Z" fill="#E1D1C2"/>
<path d="M59.4729 73.1517C59.4538 74.3628 60.4096 75.359 61.5949 75.3785C62.7801 75.398 63.7551 74.4214 63.7742 73.2103C63.7933 71.9993 62.8375 71.0031 61.6523 70.9836C60.467 70.964 59.4921 71.9407 59.4729 73.1517Z" fill="#E1D1C2"/>
<path d="M40.1458 72.9173C40.1267 74.1284 41.0825 75.1246 42.2678 75.1441C43.453 75.1637 44.4279 74.187 44.4471 72.9759C44.4662 71.7649 43.5104 70.7687 42.3251 70.7492C41.1399 70.7297 40.1649 71.7063 40.1458 72.9173Z" fill="#E1D1C2"/>
<path d="M20.7991 72.6634C20.78 73.8744 21.7359 74.8707 22.9211 74.8902C24.1063 74.9097 25.0813 73.933 25.1004 72.722C25.1195 71.5109 24.1637 70.5148 22.9784 70.4952C21.7932 70.4952 20.8182 71.4523 20.7991 72.6634Z" fill="#E1D1C2"/>
<path d="M1.45341 72.429C1.43429 73.64 2.3901 74.6363 3.57534 74.6558C4.76057 74.6753 5.73556 73.6986 5.75467 72.4876C5.77379 71.2765 4.81792 70.2804 3.63268 70.2608C2.44745 70.2413 1.47252 71.2179 1.45341 72.429Z" fill="#E1D1C2"/>
<path d="M194.647 92.3918C194.628 93.6029 195.583 94.5991 196.769 94.6186C197.954 94.6382 198.929 93.6615 198.948 92.4504C198.967 91.2394 198.011 90.2432 196.826 90.2237C195.641 90.2041 194.666 91.1808 194.647 92.3918Z" fill="#E1D1C2"/>
<path d="M175.32 92.1379C175.301 93.3489 176.256 94.3451 177.442 94.3647C178.627 94.3842 179.602 93.4075 179.621 92.1965C179.64 90.9854 178.684 89.9892 177.499 89.9697C176.295 89.9502 175.32 90.9268 175.32 92.1379Z" fill="#E1D1C2"/>
<path d="M155.974 91.9035C155.955 93.1145 156.911 94.1107 158.096 94.1303C159.281 94.1498 160.256 93.1731 160.275 91.9621C160.294 90.751 159.338 89.7549 158.153 89.7353C156.968 89.7158 155.993 90.6924 155.974 91.9035Z" fill="#E1D1C2"/>
<path d="M136.627 91.6691C136.608 92.8802 137.564 93.8763 138.749 93.8958C139.934 93.9154 140.909 92.9388 140.929 91.7277C140.948 90.5166 139.992 89.5204 138.807 89.5009C137.621 89.4814 136.646 90.4581 136.627 91.6691Z" fill="#E1D1C2"/>
<path d="M117.301 91.4347C117.282 92.6458 118.238 93.6419 119.423 93.6615C120.608 93.681 121.583 92.7044 121.602 91.4933C121.621 90.2823 120.666 89.2861 119.48 89.2665C118.276 89.247 117.301 90.2237 117.301 91.4347Z" fill="#E1D1C2"/>
<path d="M97.9544 91.2004C97.9353 92.4114 98.8911 93.4076 100.076 93.4271C101.262 93.4466 102.237 92.47 102.256 91.259C102.275 90.0479 101.319 89.0517 100.134 89.0322C98.9485 89.0126 97.9735 89.9698 97.9544 91.2004Z" fill="#E1D1C2"/>
<path d="M78.6087 90.9464C78.5896 92.1574 79.5454 93.1536 80.7306 93.1731C81.9158 93.1927 82.8908 92.216 82.9099 91.005C82.9291 89.7939 81.9731 88.7977 80.7879 88.7782C79.6027 88.7586 78.6278 89.7353 78.6087 90.9464Z" fill="#E1D1C2"/>
<path d="M59.2815 90.712C59.2624 91.9231 60.2183 92.9192 61.4036 92.9388C62.5888 92.9583 63.5637 91.9817 63.5828 90.7706C63.6019 89.5596 62.6461 88.5633 61.4609 88.5438C60.2565 88.5243 59.2815 89.501 59.2815 90.712Z" fill="#E1D1C2"/>
<path d="M39.9349 90.4776C39.9157 91.6886 40.8715 92.6848 42.0568 92.7044C43.242 92.7239 44.217 91.7472 44.2361 90.5362C44.2552 89.3251 43.2994 88.329 42.1141 88.3094C40.9289 88.2899 39.954 89.2665 39.9349 90.4776Z" fill="#E1D1C2"/>
<path d="M20.5891 90.2431C20.57 91.4542 21.5258 92.4504 22.7111 92.4699C23.8963 92.4895 24.8713 91.5128 24.8904 90.3017C24.9095 89.0907 23.9537 88.0945 22.7684 88.075C21.5832 88.0555 20.6083 89.0126 20.5891 90.2431Z" fill="#E1D1C2"/>
<path d="M1.262 90.0088C1.24288 91.2198 2.19875 92.216 3.38399 92.2356C4.56923 92.2551 5.54415 91.2784 5.56327 90.0674C5.58238 88.8563 4.62657 87.8602 3.44134 87.8406C2.23698 87.8211 1.262 88.7782 1.262 90.0088Z" fill="#E1D1C2"/>
<path d="M194.437 109.952C194.418 111.163 195.374 112.159 196.559 112.179C197.744 112.198 198.719 111.222 198.738 110.011C198.757 108.8 197.801 107.804 196.616 107.784C195.431 107.764 194.456 108.741 194.437 109.952Z" fill="#E1D1C2"/>
<path d="M175.11 109.698C175.091 110.909 176.046 111.905 177.232 111.925C178.417 111.945 179.392 110.968 179.411 109.757C179.43 108.546 178.474 107.55 177.289 107.53C176.085 107.53 175.129 108.487 175.11 109.698Z" fill="#E1D1C2"/>
<path d="M155.764 109.464C155.745 110.675 156.701 111.671 157.886 111.691C159.071 111.71 160.046 110.733 160.065 109.522C160.084 108.311 159.129 107.315 157.943 107.296C156.758 107.296 155.783 108.253 155.764 109.464Z" fill="#E1D1C2"/>
<path d="M136.417 109.229C136.398 110.44 137.354 111.437 138.539 111.456C139.724 111.476 140.699 110.499 140.719 109.288C140.738 108.077 139.782 107.081 138.597 107.061C137.411 107.042 136.436 108.018 136.417 109.229Z" fill="#E1D1C2"/>
<path d="M117.091 108.995C117.072 110.206 118.028 111.202 119.213 111.222C120.398 111.241 121.373 110.265 121.392 109.054C121.411 107.843 120.456 106.846 119.27 106.827C118.085 106.807 117.091 107.784 117.091 108.995Z" fill="#E1D1C2"/>
<path d="M97.7444 108.761C97.7253 109.972 98.6811 110.968 99.8664 110.987C101.052 111.007 102.027 110.03 102.046 108.819C102.065 107.608 101.109 106.612 99.9236 106.592C98.7384 106.573 97.7635 107.55 97.7444 108.761Z" fill="#E1D1C2"/>
<path d="M78.3987 108.526C78.3796 109.737 79.3355 110.733 80.5208 110.753C81.706 110.772 82.6809 109.796 82.7 108.585C82.7191 107.374 81.7633 106.378 80.5781 106.358C79.3928 106.338 78.4178 107.315 78.3987 108.526Z" fill="#E1D1C2"/>
<path d="M59.0716 108.272C59.0525 109.483 60.0083 110.479 61.1935 110.499C62.3787 110.519 63.3537 109.542 63.3728 108.331C63.392 107.12 62.4361 106.124 61.2509 106.104C60.0466 106.104 59.0907 107.061 59.0716 108.272Z" fill="#E1D1C2"/>
<path d="M39.7249 108.038C39.7058 109.249 40.6616 110.245 41.8469 110.265C43.0321 110.284 44.007 109.308 44.0262 108.096C44.0453 106.885 43.0895 105.889 41.9042 105.87C40.719 105.85 39.744 106.827 39.7249 108.038Z" fill="#E1D1C2"/>
<path d="M20.3792 107.804C20.3601 109.015 21.3159 110.011 22.5012 110.03C23.6864 110.05 24.6613 109.073 24.6805 107.862C24.6996 106.651 23.7438 105.655 22.5585 105.635C21.3733 105.616 20.3983 106.592 20.3792 107.804Z" fill="#E1D1C2"/>
<path d="M1.05204 107.569C1.03292 108.78 1.98873 109.776 3.17397 109.796C4.35921 109.815 5.33419 108.839 5.3533 107.628C5.37242 106.417 4.41655 105.42 3.23132 105.401C2.02696 105.381 1.05204 106.358 1.05204 107.569Z" fill="#E1D1C2"/>
<path d="M194.245 127.512C194.226 128.723 195.182 129.72 196.367 129.739C197.553 129.759 198.528 128.782 198.547 127.571C198.566 126.36 197.61 125.364 196.425 125.344C195.22 125.325 194.245 126.301 194.245 127.512Z" fill="#E1D1C2"/>
<path d="M174.899 127.278C174.88 128.489 175.835 129.485 177.021 129.505C178.206 129.524 179.181 128.548 179.2 127.337C179.219 126.126 178.263 125.129 177.078 125.11C175.893 125.09 174.918 126.067 174.899 127.278Z" fill="#E1D1C2"/>
<path d="M155.553 127.044C155.534 128.255 156.49 129.251 157.675 129.27C158.86 129.29 159.835 128.313 159.854 127.102C159.873 125.891 158.917 124.895 157.732 124.875C156.547 124.856 155.572 125.833 155.553 127.044Z" fill="#E1D1C2"/>
<path d="M136.226 126.79C136.207 128.001 137.163 128.997 138.348 129.016C139.533 129.036 140.508 128.059 140.527 126.848C140.546 125.637 139.59 124.641 138.405 124.621C137.201 124.621 136.226 125.579 136.226 126.79Z" fill="#E1D1C2"/>
<path d="M116.88 126.555C116.861 127.766 117.817 128.762 119.002 128.782C120.187 128.802 121.162 127.825 121.181 126.614C121.201 125.403 120.245 124.407 119.06 124.387C117.874 124.368 116.899 125.344 116.88 126.555Z" fill="#E1D1C2"/>
<path d="M97.5335 126.321C97.5144 127.532 98.4703 128.528 99.6555 128.548C100.841 128.567 101.816 127.59 101.835 126.379C101.854 125.168 100.898 124.172 99.7128 124.153C98.5276 124.133 97.5526 125.11 97.5335 126.321Z" fill="#E1D1C2"/>
<path d="M78.2063 126.086C78.1872 127.298 79.143 128.294 80.3283 128.313C81.5135 128.333 82.4885 127.356 82.5076 126.145C82.5267 124.934 81.5709 123.938 80.3857 123.918C79.1813 123.899 78.2063 124.875 78.2063 126.086Z" fill="#E1D1C2"/>
<path d="M58.8606 125.852C58.8415 127.063 59.7973 128.059 60.9826 128.079C62.1678 128.098 63.1428 127.122 63.1619 125.911C63.181 124.7 62.2252 123.703 61.04 123.684C59.8547 123.664 58.8798 124.622 58.8606 125.852Z" fill="#E1D1C2"/>
<path d="M39.514 125.598C39.4948 126.809 40.4506 127.805 41.6359 127.825C42.8211 127.844 43.7961 126.868 43.8152 125.657C43.8343 124.446 42.8785 123.45 41.6932 123.43C40.508 123.43 39.5331 124.387 39.514 125.598Z" fill="#E1D1C2"/>
<path d="M20.1868 125.364C20.1677 126.575 21.1236 127.571 22.3088 127.59C23.494 127.61 24.469 126.633 24.4881 125.422C24.5072 124.211 23.5514 123.215 22.3661 123.196C21.1618 123.176 20.1868 124.153 20.1868 125.364Z" fill="#E1D1C2"/>
<path d="M0.841102 125.129C0.821985 126.34 1.77785 127.337 2.96309 127.356C4.14833 127.376 5.12325 126.399 5.14237 125.188C5.16148 123.977 4.20568 122.981 3.02044 122.961C1.8352 122.942 0.860219 123.918 0.841102 125.129Z" fill="#E1D1C2"/>
<path d="M194.035 145.073C194.016 146.284 194.972 147.28 196.157 147.299C197.343 147.319 198.318 146.342 198.337 145.131C198.356 143.92 197.4 142.924 196.215 142.905C195.029 142.885 194.035 143.862 194.035 145.073Z" fill="#E1D1C2"/>
<path d="M174.689 144.838C174.67 146.049 175.625 147.045 176.811 147.065C177.996 147.085 178.971 146.108 178.99 144.897C179.009 143.686 178.053 142.69 176.868 142.67C175.683 142.65 174.708 143.627 174.689 144.838Z" fill="#E1D1C2"/>
<path d="M155.343 144.604C155.324 145.815 156.28 146.811 157.465 146.831C158.65 146.85 159.625 145.874 159.644 144.662C159.663 143.451 158.708 142.455 157.522 142.436C156.337 142.416 155.362 143.393 155.343 144.604Z" fill="#E1D1C2"/>
<path d="M136.016 144.369C135.997 145.581 136.953 146.577 138.138 146.596C139.323 146.616 140.298 145.639 140.317 144.428C140.336 143.217 139.38 142.221 138.195 142.201C136.991 142.182 136.035 143.158 136.016 144.369Z" fill="#E1D1C2"/>
<path d="M116.67 144.116C116.651 145.327 117.607 146.323 118.792 146.342C119.977 146.362 120.952 145.385 120.971 144.174C120.991 142.963 120.035 141.967 118.85 141.947C117.664 141.947 116.689 142.924 116.67 144.116Z" fill="#E1D1C2"/>
<path d="M97.3235 143.881C97.3044 145.092 98.2602 146.088 99.4455 146.108C100.631 146.127 101.606 145.151 101.625 143.94C101.644 142.729 100.688 141.732 99.5029 141.713C98.3176 141.693 97.3426 142.67 97.3235 143.881Z" fill="#E1D1C2"/>
<path d="M77.9964 143.647C77.9773 144.858 78.9331 145.854 80.1183 145.874C81.3035 145.893 82.2785 144.916 82.2976 143.705C82.3168 142.494 81.3609 141.498 80.1757 141.479C78.9714 141.459 77.9964 142.436 77.9964 143.647Z" fill="#E1D1C2"/>
<path d="M58.6507 143.412C58.6316 144.623 59.5874 145.62 60.7726 145.639C61.9578 145.659 62.9328 144.682 62.9519 143.471C62.9711 142.26 62.0152 141.264 60.83 141.244C59.6448 141.225 58.6698 142.201 58.6507 143.412Z" fill="#E1D1C2"/>
<path d="M39.304 143.178C39.2849 144.389 40.2407 145.385 41.426 145.405C42.6112 145.424 43.5861 144.448 43.6053 143.237C43.6244 142.026 42.6686 141.029 41.4833 141.01C40.2981 140.99 39.3231 141.967 39.304 143.178Z" fill="#E1D1C2"/>
<path d="M19.9768 142.944C19.9577 144.155 20.9135 145.151 22.0988 145.17C23.284 145.19 24.259 144.213 24.2781 143.002C24.2972 141.791 23.3414 140.795 22.1561 140.775C20.9518 140.756 19.9768 141.713 19.9768 142.944Z" fill="#E1D1C2"/>
<path d="M0.631141 142.69C0.612024 143.901 1.56783 144.897 2.75307 144.916C3.93831 144.936 4.91329 143.959 4.93241 142.748C4.95152 141.537 3.99566 140.541 2.81042 140.521C1.62518 140.502 0.650258 141.479 0.631141 142.69Z" fill="#E1D1C2"/>
<path d="M193.825 162.652C193.806 163.863 194.762 164.86 195.948 164.879C197.133 164.899 198.108 163.922 198.127 162.711C198.146 161.5 197.19 160.504 196.005 160.484C194.82 160.465 193.845 161.441 193.825 162.652Z" fill="#E1D1C2"/>
<path d="M174.479 162.418C174.46 163.629 175.416 164.625 176.601 164.645C177.786 164.645 178.761 163.688 178.78 162.477C178.799 161.266 177.843 160.269 176.658 160.25C175.473 160.211 174.498 161.187 174.479 162.418Z" fill="#E1D1C2"/>
<path d="M155.153 162.164C155.134 163.375 156.089 164.371 157.275 164.391C158.46 164.41 159.435 163.434 159.454 162.223C159.473 161.012 158.517 160.015 157.332 159.996C156.128 159.976 155.153 160.953 155.153 162.164Z" fill="#E1D1C2"/>
<path d="M135.806 161.93C135.787 163.141 136.743 164.137 137.928 164.156C139.113 164.176 140.088 163.199 140.107 161.988C140.126 160.777 139.171 159.781 137.985 159.762C136.8 159.742 135.825 160.719 135.806 161.93Z" fill="#E1D1C2"/>
<path d="M116.46 161.695C116.441 162.906 117.397 163.903 118.582 163.922C119.767 163.942 120.742 162.965 120.762 161.754C120.781 160.543 119.825 159.547 118.64 159.527C117.454 159.508 116.479 160.484 116.46 161.695Z" fill="#E1D1C2"/>
<path d="M97.1331 161.461C97.114 162.672 98.0698 163.668 99.255 163.688C100.44 163.707 101.415 162.731 101.434 161.52C101.453 160.308 100.498 159.312 99.3123 159.293C98.108 159.273 97.1331 160.25 97.1331 161.461Z" fill="#E1D1C2"/>
<path d="M77.7864 161.207C77.7673 162.418 78.7231 163.414 79.9083 163.434C81.0936 163.453 82.0686 162.477 82.0877 161.266C82.1068 160.055 81.1509 159.058 79.9656 159.039C78.7613 159.039 77.8055 159.996 77.7864 161.207Z" fill="#E1D1C2"/>
<path d="M58.4407 160.973C58.4216 162.184 59.3774 163.18 60.5626 163.199C61.7479 163.219 62.7229 162.242 62.742 161.031C62.7611 159.82 61.8052 158.824 60.6199 158.804C59.4347 158.785 58.4598 159.762 58.4407 160.973Z" fill="#E1D1C2"/>
<path d="M39.094 160.738C39.0749 161.949 40.0307 162.945 41.216 162.965C42.4012 162.984 43.3762 162.008 43.3953 160.797C43.4144 159.586 42.4585 158.59 41.2733 158.57C40.0881 158.55 39.1131 159.527 39.094 160.738Z" fill="#E1D1C2"/>
<path d="M19.7669 160.504C19.7478 161.715 20.7036 162.711 21.8889 162.731C23.0741 162.75 24.049 161.773 24.0681 160.562C24.0873 159.351 23.1315 158.355 21.9462 158.336C20.761 158.316 19.786 159.293 19.7669 160.504Z" fill="#E1D1C2"/>
<path d="M0.42118 160.269C0.402064 161.48 1.35793 162.477 2.54317 162.496C3.72841 162.516 4.70333 161.539 4.72245 160.328C4.74156 159.117 3.78575 158.121 2.60052 158.101C1.41528 158.082 0.440297 159.039 0.42118 160.269Z" fill="#E1D1C2"/>
<path d="M193.615 180.213C193.595 181.424 194.551 182.42 195.736 182.439C196.922 182.459 197.897 181.482 197.916 180.271C197.935 179.06 196.979 178.064 195.794 178.045C194.609 178.025 193.634 179.002 193.615 180.213Z" fill="#E1D1C2"/>
<path d="M174.268 179.978C174.249 181.189 175.205 182.186 176.39 182.205C177.575 182.225 178.55 181.248 178.569 180.037C178.588 178.826 177.632 177.83 176.447 177.81C175.262 177.791 174.287 178.767 174.268 179.978Z" fill="#E1D1C2"/>
<path d="M154.942 179.724C154.923 180.935 155.878 181.932 157.064 181.951C158.249 181.971 159.224 180.994 159.243 179.783C159.262 178.572 158.306 177.576 157.121 177.556C155.917 177.556 154.942 178.513 154.942 179.724Z" fill="#E1D1C2"/>
<path d="M135.595 179.49C135.576 180.701 136.532 181.697 137.717 181.717C138.902 181.736 139.877 180.76 139.896 179.549C139.915 178.338 138.96 177.341 137.774 177.322C136.589 177.302 135.614 178.279 135.595 179.49Z" fill="#E1D1C2"/>
<path d="M116.249 179.256C116.23 180.467 117.186 181.463 118.371 181.482C119.556 181.502 120.531 180.525 120.551 179.314C120.57 178.103 119.614 177.107 118.429 177.087C117.243 177.068 116.268 178.045 116.249 179.256Z" fill="#E1D1C2"/>
<path d="M96.9222 179.021C96.903 180.232 97.859 181.228 99.0442 181.248C100.229 181.267 101.204 180.291 101.223 179.08C101.243 177.869 100.287 176.873 99.1015 176.853C97.8971 176.833 96.9222 177.81 96.9222 179.021Z" fill="#E1D1C2"/>
<path d="M77.5755 178.787C77.5564 179.998 78.5123 180.994 79.6975 181.014C80.8828 181.033 81.8576 180.056 81.8767 178.845C81.8959 177.634 80.9401 176.638 79.7548 176.619C78.5696 176.599 77.5946 177.556 77.5755 178.787Z" fill="#E1D1C2"/>
<path d="M58.2298 178.533C58.2107 179.744 59.1666 180.74 60.3518 180.76C61.5371 180.779 62.5119 179.803 62.531 178.591C62.5502 177.38 61.5943 176.384 60.4091 176.365C59.2239 176.345 58.2489 177.322 58.2298 178.533Z" fill="#E1D1C2"/>
<path d="M38.9026 178.298C38.8835 179.51 39.8394 180.506 41.0246 180.525C42.2099 180.545 43.1848 179.568 43.2039 178.357C43.223 177.146 42.2672 176.15 41.082 176.13C39.8776 176.111 38.9026 177.087 38.9026 178.298Z" fill="#E1D1C2"/>
<path d="M19.5559 178.064C19.5368 179.275 20.4926 180.271 21.6779 180.291C22.8631 180.31 23.8381 179.334 23.8572 178.123C23.8763 176.912 22.9205 175.915 21.7352 175.896C20.55 175.876 19.5751 176.853 19.5559 178.064Z" fill="#E1D1C2"/>
<path d="M0.210243 177.83C0.191126 179.041 1.14693 180.037 2.33217 180.056C3.51741 180.076 4.49239 179.099 4.51151 177.888C4.53062 176.677 3.57476 175.681 2.38952 175.661C1.20428 175.642 0.22936 176.619 0.210243 177.83Z" fill="#E1D1C2"/>
<path d="M193.405 197.773C193.385 198.984 194.341 199.98 195.527 200C196.712 200.019 197.687 199.043 197.706 197.832C197.725 196.621 196.769 195.624 195.584 195.605C194.399 195.585 193.424 196.562 193.405 197.773Z" fill="#E1D1C2"/>
<path d="M174.077 197.539C174.058 198.75 175.014 199.746 176.199 199.765C177.385 199.785 178.36 198.808 178.379 197.597C178.398 196.386 177.442 195.39 176.257 195.37C175.052 195.351 174.077 196.327 174.077 197.539Z" fill="#E1D1C2"/>
<path d="M154.732 197.304C154.713 198.515 155.668 199.511 156.854 199.531C158.039 199.531 159.014 198.574 159.033 197.363C159.052 196.152 158.096 195.156 156.911 195.136C155.707 195.116 154.751 196.093 154.732 197.304Z" fill="#E1D1C2"/>
<path d="M135.385 197.07C135.366 198.281 136.322 199.277 137.507 199.297C138.692 199.316 139.667 198.339 139.686 197.128C139.705 195.917 138.75 194.921 137.564 194.902C136.379 194.882 135.404 195.859 135.385 197.07Z" fill="#E1D1C2"/>
<path d="M116.039 196.816C116.02 198.027 116.976 199.023 118.161 199.043C119.347 199.062 120.321 198.086 120.341 196.874C120.36 195.663 119.404 194.667 118.219 194.648C117.033 194.648 116.058 195.605 116.039 196.816Z" fill="#E1D1C2"/>
<path d="M96.7122 196.581C96.6931 197.793 97.6489 198.789 98.8341 198.808C100.019 198.828 100.994 197.851 101.013 196.64C101.033 195.429 100.077 194.433 98.8915 194.413C97.7063 194.394 96.7313 195.37 96.7122 196.581Z" fill="#E1D1C2"/>
<path d="M77.3655 196.347C77.3464 197.558 78.3022 198.554 79.4874 198.574C80.6727 198.593 81.6477 197.617 81.6668 196.406C81.6859 195.195 80.7301 194.198 79.5449 194.179C78.3596 194.159 77.3846 195.136 77.3655 196.347Z" fill="#E1D1C2"/>
<path d="M58.0384 196.113C58.0193 197.324 58.9751 198.32 60.1603 198.339C61.3455 198.359 62.3205 197.382 62.3396 196.171C62.3587 194.96 61.4029 193.964 60.2177 193.944C59.0133 193.925 58.0384 194.902 58.0384 196.113Z" fill="#E1D1C2"/>
<path d="M38.6927 195.859C38.6735 197.07 39.6294 198.066 40.8146 198.086C41.9998 198.105 42.9748 197.128 42.9939 195.917C43.013 194.706 42.0572 193.71 40.8719 193.691C39.6676 193.691 38.7118 194.648 38.6927 195.859Z" fill="#E1D1C2"/>
<path d="M19.346 195.624C19.3269 196.835 20.2827 197.832 21.468 197.851C22.6532 197.871 23.6281 196.894 23.6473 195.683C23.6664 194.472 22.7106 193.476 21.5253 193.456C20.3401 193.437 19.3651 194.413 19.346 195.624Z" fill="#E1D1C2"/>
<path d="M0.000281826 195.39C-0.0188349 196.601 0.937032 197.597 2.12227 197.617C3.30751 197.636 4.28243 196.66 4.30155 195.449C4.32066 194.237 3.36486 193.241 2.17962 193.222C0.99438 193.202 0.0193986 194.179 0.000281826 195.39Z" fill="#E1D1C2"/>
</svg>
