<svg width="100" height="100" viewBox="0 0 100 100" fill="none" xmlns="http://www.w3.org/2000/svg">
<path d="M97.8498 2.27562C97.8402 2.88115 98.3181 3.37926 98.9107 3.38902C99.5033 3.39879 99.9908 2.91045 100 2.30492C100.01 1.6994 99.532 1.20132 98.9394 1.19155C98.3372 1.18178 97.8498 1.6701 97.8498 2.27562Z" fill="#E1D1C2"/>
<path d="M88.1769 2.15847C88.1673 2.76399 88.6452 3.26207 89.2379 3.27184C89.8305 3.2816 90.318 2.79329 90.3275 2.18776C90.3371 1.58224 89.8591 1.08413 89.2665 1.07436C88.6643 1.0646 88.1865 1.55294 88.1769 2.15847Z" fill="#E1D1C2"/>
<path d="M78.5031 2.04128C78.4935 2.6468 78.9714 3.14488 79.564 3.15465C80.1567 3.16442 80.6441 2.6761 80.6537 2.07058C80.6633 1.46505 80.1853 0.966942 79.5927 0.957175C79.0001 0.947409 78.5126 1.43575 78.5031 2.04128Z" fill="#E1D1C2"/>
<path d="M68.84 1.92409C68.8304 2.52962 69.3084 3.0277 69.901 3.03746C70.4936 3.04723 70.9811 2.55892 70.9906 1.95339C71.0002 1.34786 70.5223 0.849754 69.9297 0.839988C69.3275 0.830221 68.84 1.31856 68.84 1.92409Z" fill="#E1D1C2"/>
<path d="M59.1671 1.79699C59.1576 2.40252 59.6355 2.9006 60.2281 2.91036C60.8207 2.92013 61.3082 2.43182 61.3178 1.82629C61.3273 1.22077 60.8494 0.722657 60.2568 0.712891C59.6642 0.712891 59.1767 1.19147 59.1671 1.79699Z" fill="#E1D1C2"/>
<path d="M49.4943 1.67995C49.4847 2.28548 49.9626 2.78355 50.5552 2.79332C51.1479 2.80309 51.6354 2.31477 51.6449 1.70925C51.6545 1.10372 51.1766 0.605614 50.5839 0.595847C49.9913 0.586081 49.5038 1.07442 49.4943 1.67995Z" fill="#E1D1C2"/>
<path d="M39.8302 1.56273C39.8207 2.16826 40.2986 2.66637 40.8912 2.67613C41.4838 2.6859 41.9713 2.19756 41.9809 1.59203C41.9904 0.986505 41.5125 0.488426 40.9199 0.47866C40.3177 0.468893 39.8302 0.957206 39.8302 1.56273Z" fill="#E1D1C2"/>
<path d="M30.1574 1.44555C30.1478 2.05107 30.6257 2.54918 31.2183 2.55895C31.811 2.56871 32.2984 2.08037 32.308 1.47484C32.3176 0.869317 31.8397 0.371239 31.247 0.361472C30.6449 0.351706 30.1669 0.840019 30.1574 1.44555Z" fill="#E1D1C2"/>
<path d="M20.4845 1.31845C20.475 1.92397 20.9529 2.42208 21.5455 2.43185C22.1381 2.44162 22.6256 1.95327 22.6351 1.34775C22.6447 0.74222 22.1668 0.244142 21.5742 0.234375C20.9815 0.234375 20.4941 0.712922 20.4845 1.31845Z" fill="#E1D1C2"/>
<path d="M10.8107 1.20126C10.8011 1.80679 11.2791 2.3049 11.8717 2.31466C12.4643 2.32443 12.9518 1.83609 12.9613 1.23056C12.9709 0.625033 12.493 0.126954 11.9004 0.117188C11.3077 0.117188 10.8202 0.595734 10.8107 1.20126Z" fill="#E1D1C2"/>
<path d="M1.1476 1.08422C1.13804 1.68974 1.61595 2.18785 2.20857 2.19762C2.80119 2.20738 3.28868 1.71904 3.29823 1.11352C3.30779 0.507989 2.82986 0.00991054 2.23724 0.000143991C1.64462 -0.00962256 1.15716 0.478691 1.1476 1.08422Z" fill="#E1D1C2"/>
<path d="M97.7443 11.0558C97.7347 11.6613 98.2127 12.1594 98.8053 12.1692C99.3979 12.1789 99.8854 11.6906 99.8949 11.0851C99.9045 10.4795 99.4266 9.98145 98.8339 9.97168C98.2318 9.97168 97.7538 10.4502 97.7443 11.0558Z" fill="#E1D1C2"/>
<path d="M88.0714 10.9387C88.0619 11.5442 88.5398 12.0423 89.1325 12.0521C89.7251 12.0619 90.2125 11.5735 90.2221 10.968C90.2316 10.3625 89.7537 9.8644 89.1611 9.85464C88.5685 9.84487 88.081 10.3332 88.0714 10.9387Z" fill="#E1D1C2"/>
<path d="M78.3976 10.8215C78.388 11.427 78.866 11.9252 79.4586 11.9349C80.0512 11.9447 80.5387 11.4563 80.5482 10.8508C80.5578 10.2453 80.0799 9.74722 79.4873 9.73745C78.8947 9.72768 78.4072 10.216 78.3976 10.8215Z" fill="#E1D1C2"/>
<path d="M68.7345 10.7044C68.725 11.3099 69.2029 11.808 69.7955 11.8177C70.3881 11.8275 70.8756 11.3392 70.8851 10.7337C70.8947 10.1281 70.4168 9.63003 69.8242 9.62026C69.222 9.61049 68.7345 10.0988 68.7345 10.7044Z" fill="#E1D1C2"/>
<path d="M59.0617 10.5872C59.0521 11.1927 59.53 11.6908 60.1226 11.7005C60.7152 11.7103 61.2027 11.222 61.2123 10.6165C61.2219 10.0109 60.744 9.51284 60.1513 9.50307C59.5587 9.49331 59.0712 9.98165 59.0617 10.5872Z" fill="#E1D1C2"/>
<path d="M49.3888 10.47C49.3793 11.0755 49.8572 11.5736 50.4498 11.5834C51.0424 11.5931 51.5299 11.1048 51.5394 10.4993C51.549 9.89376 51.0711 9.39566 50.4785 9.38589C49.8859 9.37612 49.3984 9.8547 49.3888 10.47Z" fill="#E1D1C2"/>
<path d="M39.7248 10.343C39.7152 10.9486 40.1931 11.4466 40.7857 11.4564C41.3783 11.4662 41.8658 10.9779 41.8754 10.3723C41.8849 9.76681 41.407 9.2687 40.8144 9.25893C40.2122 9.24917 39.7248 9.73751 39.7248 10.343Z" fill="#E1D1C2"/>
<path d="M30.0519 10.2258C30.0423 10.8314 30.5202 11.3295 31.1129 11.3392C31.7055 11.349 32.193 10.8607 32.2025 10.2551C32.2121 9.64962 31.7341 9.15151 31.1415 9.14175C30.5489 9.13198 30.0615 9.62032 30.0519 10.2258Z" fill="#E1D1C2"/>
<path d="M20.379 10.1086C20.3695 10.7142 20.8474 11.2123 21.44 11.222C22.0327 11.2318 22.5201 10.7435 22.5297 10.1379C22.5392 9.5324 22.0613 9.03432 21.4687 9.02456C20.8761 9.01479 20.3886 9.5031 20.379 10.1086Z" fill="#E1D1C2"/>
<path d="M10.715 9.99145C10.7054 10.597 11.1833 11.0951 11.7759 11.1048C12.3686 11.1146 12.8561 10.6263 12.8656 10.0207C12.8752 9.41522 12.3972 8.91714 11.8046 8.90737C11.2024 8.89761 10.715 9.37615 10.715 9.99145Z" fill="#E1D1C2"/>
<path d="M1.04213 9.86435C1.03257 10.4699 1.51051 10.968 2.10313 10.9777C2.69575 10.9875 3.18321 10.4992 3.19277 9.89364C3.20232 9.28812 2.72442 8.79004 2.1318 8.78027C1.53918 8.78027 1.05169 9.25882 1.04213 9.86435Z" fill="#E1D1C2"/>
<path d="M97.6388 19.8459C97.6293 20.4515 98.1072 20.9496 98.6998 20.9593C99.2924 20.9691 99.7799 20.4808 99.7894 19.8752C99.799 19.2697 99.3211 18.7716 98.7285 18.7619C98.1359 18.7521 97.6484 19.2404 97.6388 19.8459Z" fill="#E1D1C2"/>
<path d="M87.966 19.7288C87.9564 20.3343 88.4343 20.8324 89.0269 20.8422C89.6195 20.8519 90.107 20.3636 90.1166 19.758C90.1262 19.1525 89.6482 18.6544 89.0556 18.6447C88.463 18.6349 87.9755 19.1135 87.966 19.7288Z" fill="#E1D1C2"/>
<path d="M78.3019 19.6017C78.2923 20.2072 78.7702 20.7053 79.3629 20.7151C79.9555 20.7248 80.443 20.2365 80.4525 19.6309C80.4621 19.0254 79.9842 18.5273 79.3916 18.5176C78.7894 18.5176 78.3019 18.9961 78.3019 19.6017Z" fill="#E1D1C2"/>
<path d="M68.629 19.4846C68.6195 20.0901 69.0974 20.5882 69.69 20.598C70.2826 20.6078 70.7701 20.1194 70.7797 19.5139C70.7892 18.9084 70.3113 18.4103 69.7187 18.4005C69.1165 18.3908 68.6386 18.8791 68.629 19.4846Z" fill="#E1D1C2"/>
<path d="M58.9562 19.3674C58.9466 19.9729 59.4245 20.4711 60.0172 20.4808C60.6098 20.4906 61.0973 20.0022 61.1068 19.3967C61.1164 18.7912 60.6385 18.2931 60.0459 18.2833C59.4532 18.2736 58.9658 18.7619 58.9562 19.3674Z" fill="#E1D1C2"/>
<path d="M49.2833 19.2503C49.2738 19.8558 49.7517 20.3539 50.3443 20.3636C50.9369 20.3734 51.4244 19.8851 51.434 19.2796C51.4435 18.674 50.9656 18.1759 50.373 18.1662C49.7803 18.1564 49.2929 18.6447 49.2833 19.2503Z" fill="#E1D1C2"/>
<path d="M39.6193 19.1231C39.6097 19.7287 40.0877 20.2268 40.6803 20.2365C41.2729 20.2463 41.7604 19.758 41.7699 19.1524C41.7795 18.5469 41.3016 18.0488 40.7089 18.0391C40.1068 18.0391 39.6288 18.5176 39.6193 19.1231Z" fill="#E1D1C2"/>
<path d="M29.9464 19.0061C29.9369 19.6116 30.4148 20.1097 31.0075 20.1195C31.6001 20.1293 32.0875 19.6409 32.0971 19.0354C32.1066 18.4299 31.6287 17.9318 31.0361 17.922C30.4435 17.9123 29.956 18.4006 29.9464 19.0061Z" fill="#E1D1C2"/>
<path d="M20.2736 18.8889C20.264 19.4945 20.7419 19.9925 21.3345 20.0023C21.9272 20.0121 22.4147 19.5238 22.4242 18.9182C22.4338 18.3127 21.9558 17.8146 21.3632 17.8048C20.7706 17.7951 20.2831 18.2834 20.2736 18.8889Z" fill="#E1D1C2"/>
<path d="M10.6095 18.7717C10.6 19.3773 11.0779 19.8754 11.6705 19.8851C12.2631 19.8949 12.7506 19.4066 12.7601 18.801C12.7697 18.1955 12.2918 17.6974 11.6992 17.6876C11.097 17.6779 10.6191 18.1662 10.6095 18.7717Z" fill="#E1D1C2"/>
<path d="M0.936664 18.6545C0.927106 19.2601 1.40501 19.7582 1.99763 19.7679C2.59025 19.7777 3.07774 19.2894 3.0873 18.6838C3.09686 18.0783 2.61892 17.5802 2.0263 17.5705C1.43368 17.5607 0.946223 18.049 0.936664 18.6545Z" fill="#E1D1C2"/>
<path d="M97.5343 28.6262C97.5248 29.2318 98.0027 29.7298 98.5953 29.7396C99.1879 29.7494 99.6754 29.2611 99.685 28.6555C99.6945 28.05 99.2166 27.5519 98.624 27.5421C98.0314 27.5324 97.5439 28.0207 97.5343 28.6262Z" fill="#E1D1C2"/>
<path d="M87.8615 28.5091C87.8519 29.1146 88.3298 29.6127 88.9224 29.6224C89.5151 29.6322 90.0025 29.1439 90.0121 28.5384C90.0217 27.9328 89.5438 27.4347 88.9511 27.4249C88.3585 27.4152 87.871 27.9035 87.8615 28.5091Z" fill="#E1D1C2"/>
<path d="M78.1974 28.3918C78.1878 28.9974 78.6658 29.4955 79.2584 29.5052C79.851 29.515 80.3385 29.0267 80.348 28.4211C80.3576 27.8156 79.8796 27.3175 79.287 27.3078C78.6848 27.298 78.1974 27.7863 78.1974 28.3918Z" fill="#E1D1C2"/>
<path d="M68.5246 28.2751C68.515 28.8806 68.9929 29.3787 69.5855 29.3885C70.1781 29.3885 70.6656 28.9099 70.6752 28.3044C70.6847 27.6988 70.2068 27.2008 69.6142 27.191C69.0215 27.1715 68.5341 27.6598 68.5246 28.2751Z" fill="#E1D1C2"/>
<path d="M58.8517 28.1477C58.8421 28.7532 59.32 29.2513 59.9127 29.2611C60.5053 29.2709 60.9928 28.7825 61.0023 28.177C61.0119 27.5715 60.5339 27.0734 59.9413 27.0636C59.3487 27.0539 58.8613 27.5422 58.8517 28.1477Z" fill="#E1D1C2"/>
<path d="M49.1876 28.0305C49.1781 28.636 49.656 29.1341 50.2487 29.1439C50.8413 29.1537 51.3287 28.6653 51.3383 28.0598C51.3478 27.4543 50.8699 26.9562 50.2773 26.9464C49.6751 26.9367 49.1876 27.425 49.1876 28.0305Z" fill="#E1D1C2"/>
<path d="M39.5148 27.9133C39.5052 28.5188 39.9831 29.017 40.5758 29.0267C41.1684 29.0365 41.6559 28.5481 41.6654 27.9426C41.675 27.3371 41.1971 26.839 40.6045 26.8292C40.0118 26.8195 39.5243 27.3078 39.5148 27.9133Z" fill="#E1D1C2"/>
<path d="M29.8419 27.7962C29.8324 28.4017 30.3103 28.8998 30.9029 28.9095C31.4955 28.9193 31.983 28.431 31.9926 27.8255C32.0021 27.2199 31.5242 26.7218 30.9316 26.7121C30.339 26.7023 29.8515 27.1906 29.8419 27.7962Z" fill="#E1D1C2"/>
<path d="M20.1779 27.669C20.1683 28.2746 20.6462 28.7727 21.2388 28.7824C21.8315 28.7922 22.3189 28.3039 22.3285 27.6983C22.3381 27.0928 21.8601 26.5947 21.2675 26.585C20.6653 26.585 20.1779 27.0635 20.1779 27.669Z" fill="#E1D1C2"/>
<path d="M10.505 27.552C10.4955 28.1575 10.9734 28.6556 11.566 28.6654C12.1586 28.6752 12.6461 28.1868 12.6557 27.5813C12.6652 26.9758 12.1873 26.4777 11.5947 26.4679C11.002 26.4582 10.5146 26.9465 10.505 27.552Z" fill="#E1D1C2"/>
<path d="M0.832172 27.4348C0.822614 28.0404 1.30055 28.5384 1.89317 28.5482C2.48579 28.558 2.97325 28.0697 2.9828 27.4641C2.99236 26.8586 2.51446 26.3605 1.92184 26.3507C1.32922 26.341 0.841731 26.8293 0.832172 27.4348Z" fill="#E1D1C2"/>
<path d="M97.4289 37.4054C97.4193 38.0109 97.8972 38.509 98.4898 38.5188C99.0824 38.5285 99.5699 38.0402 99.5795 37.4347C99.589 36.8291 99.1111 36.3311 98.5185 36.3213C97.9259 36.3213 97.4384 36.7998 97.4289 37.4054Z" fill="#E1D1C2"/>
<path d="M87.756 37.2883C87.7464 37.8939 88.2243 38.392 88.817 38.4017C89.4096 38.4115 89.8971 37.9232 89.9066 37.3176C89.9162 36.7121 89.4382 36.214 88.8456 36.2042C88.253 36.1945 87.7656 36.6828 87.756 37.2883Z" fill="#E1D1C2"/>
<path d="M78.0919 37.1712C78.0824 37.7767 78.5603 38.2748 79.153 38.2845C79.7456 38.2943 80.233 37.806 80.2426 37.2005C80.2521 36.5949 79.7742 36.0968 79.1816 36.0871C78.5794 36.0773 78.0919 36.5656 78.0919 37.1712Z" fill="#E1D1C2"/>
<path d="M68.4191 37.054C68.4095 37.6595 68.8875 38.1576 69.4801 38.1673C70.0727 38.1771 70.5602 37.6888 70.5697 37.0833C70.5793 36.4777 70.1014 35.9796 69.5088 35.9699C68.9161 35.9601 68.4286 36.4387 68.4191 37.054Z" fill="#E1D1C2"/>
<path d="M58.7462 36.9269C58.7367 37.5324 59.2146 38.0305 59.8073 38.0402C60.3999 38.05 60.8873 37.5617 60.8969 36.9562C60.9064 36.3506 60.4285 35.8525 59.8359 35.8428C59.2433 35.8428 58.7558 36.3213 58.7462 36.9269Z" fill="#E1D1C2"/>
<path d="M49.0822 36.8098C49.0726 37.4154 49.5505 37.9134 50.1431 37.9232C50.7358 37.933 51.2232 37.4447 51.2328 36.8391C51.2424 36.2336 50.7645 35.7355 50.1718 35.7257C49.5697 35.716 49.0917 36.2043 49.0822 36.8098Z" fill="#E1D1C2"/>
<path d="M39.4093 36.6926C39.3998 37.2981 39.8777 37.7963 40.4703 37.806C41.0629 37.8158 41.5504 37.3274 41.56 36.7219C41.5695 36.1164 41.0916 35.6183 40.499 35.6085C39.9064 35.5988 39.4189 36.0871 39.4093 36.6926Z" fill="#E1D1C2"/>
<path d="M29.7365 36.5754C29.7269 37.181 30.2048 37.6791 30.7974 37.6888C31.3901 37.6986 31.8775 37.2103 31.8871 36.6047C31.8967 35.9992 31.4188 35.5011 30.8261 35.4914C30.2335 35.4816 29.746 35.9699 29.7365 36.5754Z" fill="#E1D1C2"/>
<path d="M20.0724 36.4582C20.0628 37.0638 20.5408 37.5619 21.1334 37.5716C21.726 37.5814 22.2135 37.0931 22.223 36.4875C22.2326 35.882 21.7547 35.3839 21.1621 35.3742C20.5695 35.3644 20.082 35.8527 20.0724 36.4582Z" fill="#E1D1C2"/>
<path d="M10.3996 36.3311C10.39 36.9367 10.8679 37.4348 11.4605 37.4445C12.0532 37.4543 12.5406 36.966 12.5502 36.3604C12.5597 35.7549 12.0818 35.2568 11.4892 35.2471C10.8966 35.2471 10.4091 35.7256 10.3996 36.3311Z" fill="#E1D1C2"/>
<path d="M0.726703 36.2141C0.717145 36.8196 1.19505 37.3177 1.78767 37.3275C2.38029 37.3373 2.86778 36.8489 2.87734 36.2434C2.88689 35.6379 2.40896 35.1398 1.81634 35.13C1.22372 35.1203 0.736262 35.6086 0.726703 36.2141Z" fill="#E1D1C2"/>
<path d="M97.3234 46.1955C97.3138 46.8011 97.7917 47.2992 98.3843 47.3089C98.977 47.3187 99.4645 46.8304 99.474 46.2248C99.4836 45.6193 99.0056 45.1212 98.413 45.1115C97.8204 45.1017 97.3329 45.59 97.3234 46.1955Z" fill="#E1D1C2"/>
<path d="M87.6603 46.0686C87.6507 46.6741 88.1287 47.1722 88.7213 47.182C89.3139 47.1918 89.8014 46.7034 89.8109 46.0979C89.8205 45.4924 89.3426 44.9943 88.75 44.9845C88.1478 44.9748 87.6603 45.4631 87.6603 46.0686Z" fill="#E1D1C2"/>
<path d="M77.9865 45.9514C77.9769 46.5569 78.4548 47.055 79.0474 47.0648C79.6401 47.0746 80.1275 46.5862 80.1371 45.9807C80.1467 45.3752 79.6688 44.8771 79.0761 44.8673C78.4835 44.8576 77.996 45.3459 77.9865 45.9514Z" fill="#E1D1C2"/>
<path d="M68.3136 45.8342C68.3041 46.4398 68.782 46.9379 69.3746 46.9476C69.9672 46.9574 70.4547 46.4691 70.4643 45.8635C70.4738 45.258 69.9959 44.7599 69.4033 44.7501C68.8107 44.7404 68.3232 45.2287 68.3136 45.8342Z" fill="#E1D1C2"/>
<path d="M58.6505 45.7171C58.641 46.3226 59.1189 46.8207 59.7115 46.8304C60.3041 46.8402 60.7916 46.3519 60.8012 45.7464C60.8107 45.1408 60.3328 44.6427 59.7402 44.633C59.138 44.6232 58.6505 45.1115 58.6505 45.7171Z" fill="#E1D1C2"/>
<path d="M48.9777 45.5999C48.9681 46.2054 49.446 46.7035 50.0386 46.7132C50.6313 46.723 51.1188 46.2347 51.1283 45.6292C51.1379 45.0236 50.66 44.5255 50.0673 44.5158C49.4747 44.506 48.9872 44.9846 48.9777 45.5999Z" fill="#E1D1C2"/>
<path d="M39.3039 45.4729C39.2943 46.0784 39.7722 46.5765 40.3648 46.5863C40.9574 46.5961 41.4449 46.1077 41.4545 45.5022C41.464 44.8967 40.9861 44.3986 40.3935 44.3888C39.8008 44.379 39.3134 44.8674 39.3039 45.4729Z" fill="#E1D1C2"/>
<path d="M29.6408 45.3557C29.6312 45.9613 30.1092 46.4593 30.7018 46.4691C31.2944 46.4789 31.7818 45.9906 31.7914 45.385C31.801 44.7795 31.3231 44.2814 30.7304 44.2716C30.1283 44.2619 29.6408 44.7502 29.6408 45.3557Z" fill="#E1D1C2"/>
<path d="M19.9679 45.2385C19.9584 45.844 20.4363 46.3421 21.0289 46.3519C21.6215 46.3617 22.109 45.8733 22.1185 45.2678C22.1281 44.6623 21.6502 44.1642 21.0576 44.1544C20.4649 44.1447 19.9775 44.633 19.9679 45.2385Z" fill="#E1D1C2"/>
<path d="M10.2941 45.1213C10.2845 45.7269 10.7624 46.225 11.3551 46.2347C11.9477 46.2445 12.4352 45.7562 12.4447 45.1506C12.4543 44.5451 11.9763 44.047 11.3837 44.0373C10.7911 44.0275 10.3036 44.506 10.2941 45.1213Z" fill="#E1D1C2"/>
<path d="M0.631 45.0041C0.621442 45.6097 1.09938 46.1078 1.69199 46.1175C2.28461 46.1273 2.77207 45.639 2.78163 45.0334C2.79119 44.4279 2.31329 43.9298 1.72067 43.9201C1.11849 43.9103 0.631 44.3888 0.631 45.0041Z" fill="#E1D1C2"/>
<path d="M97.2179 54.9758C97.2084 55.5813 97.6863 56.0795 98.2789 56.0892C98.8716 56.099 99.359 55.6106 99.3685 55.0051C99.3781 54.3996 98.9002 53.9015 98.3076 53.8917C97.715 53.882 97.2275 54.3703 97.2179 54.9758Z" fill="#E1D1C2"/>
<path d="M87.5548 54.8488C87.5453 55.4543 88.0232 55.9524 88.6158 55.9621C89.2084 55.9719 89.6959 55.4836 89.7055 54.878C89.715 54.2725 89.2371 53.7744 88.6445 53.7646C88.0423 53.7646 87.5644 54.2432 87.5548 54.8488Z" fill="#E1D1C2"/>
<path d="M77.881 54.7315C77.8714 55.3371 78.3493 55.8352 78.942 55.8449C79.5346 55.8547 80.0221 55.3664 80.0316 54.7608C80.0412 54.1553 79.5633 53.6572 78.9707 53.6475C78.378 53.6475 77.8906 54.126 77.881 54.7315Z" fill="#E1D1C2"/>
<path d="M68.2081 54.6145C68.1986 55.22 68.6765 55.7181 69.2691 55.7279C69.8617 55.7377 70.3492 55.2493 70.3588 54.6438C70.3683 54.0383 69.8904 53.5402 69.2978 53.5304C68.7052 53.5207 68.2177 54.009 68.2081 54.6145Z" fill="#E1D1C2"/>
<path d="M58.5451 54.4973C58.5355 55.1028 59.0134 55.6009 59.606 55.6107C60.1986 55.6205 60.6861 55.1321 60.6957 54.5266C60.7053 53.9211 60.2273 53.423 59.6347 53.4132C59.0421 53.4035 58.5451 53.8918 58.5451 54.4973Z" fill="#E1D1C2"/>
<path d="M48.8722 54.3801C48.8627 54.9857 49.3406 55.4838 49.9332 55.4935C50.5258 55.5033 51.0133 55.015 51.0228 54.4094C51.0324 53.8039 50.5544 53.3058 49.9618 53.296C49.3692 53.2863 48.8818 53.7746 48.8722 54.3801Z" fill="#E1D1C2"/>
<path d="M39.1984 54.263C39.1888 54.8685 39.6668 55.3666 40.2594 55.3763C40.852 55.3861 41.3395 54.8978 41.349 54.2923C41.3586 53.6867 40.8807 53.1886 40.2881 53.1789C39.6954 53.1691 39.2079 53.6574 39.1984 54.263Z" fill="#E1D1C2"/>
<path d="M29.5353 54.1359C29.5257 54.7414 30.0036 55.2395 30.5963 55.2492C31.1889 55.259 31.6764 54.7707 31.6859 54.1652C31.6955 53.5596 31.2176 53.0615 30.625 53.0518C30.0228 53.0518 29.5449 53.5303 29.5353 54.1359Z" fill="#E1D1C2"/>
<path d="M19.8624 54.0188C19.8529 54.6243 20.3308 55.1224 20.9234 55.1322C21.5161 55.142 22.0035 54.6536 22.0131 54.0481C22.0226 53.4426 21.5447 52.9445 20.9521 52.9347C20.3595 52.9249 19.872 53.4133 19.8624 54.0188Z" fill="#E1D1C2"/>
<path d="M10.1886 53.9016C10.1791 54.5072 10.657 55.0052 11.2496 55.015C11.8422 55.0248 12.3297 54.5365 12.3393 53.9309C12.3488 53.3254 11.8709 52.8273 11.2783 52.8175C10.6857 52.8078 10.1982 53.2961 10.1886 53.9016Z" fill="#E1D1C2"/>
<path d="M0.525532 53.7844C0.515973 54.3899 0.993878 54.888 1.5865 54.8978C2.17912 54.9076 2.66661 54.4192 2.67616 53.8137C2.68572 53.2082 2.20779 52.7101 1.61517 52.7003C1.01299 52.6906 0.525532 53.1789 0.525532 53.7844Z" fill="#E1D1C2"/>
<path d="M97.1232 63.7561C97.1136 64.3616 97.5915 64.8597 98.1842 64.8695C98.7768 64.8793 99.2643 64.3909 99.2738 63.7854C99.2834 63.1799 98.8055 62.6818 98.2129 62.672C97.6107 62.6623 97.1232 63.1506 97.1232 63.7561Z" fill="#E1D1C2"/>
<path d="M87.4503 63.6389C87.4408 64.2445 87.9187 64.7425 88.5113 64.7523C89.1039 64.7621 89.5914 64.2738 89.601 63.6682C89.6105 63.0627 89.1326 62.5646 88.54 62.5548C87.9474 62.5451 87.4599 63.0334 87.4503 63.6389Z" fill="#E1D1C2"/>
<path d="M77.7765 63.5217C77.7669 64.1272 78.2449 64.6254 78.8375 64.6351C79.4301 64.6449 79.9176 64.1565 79.9271 63.551C79.9367 62.9455 79.4587 62.4474 78.8661 62.4376C78.2735 62.4279 77.7861 62.9162 77.7765 63.5217Z" fill="#E1D1C2"/>
<path d="M68.1134 63.3946C68.1039 64.0002 68.5818 64.4983 69.1744 64.508C69.7671 64.5178 70.2545 64.0295 70.2641 63.4239C70.2736 62.8184 69.7957 62.3203 69.2031 62.3105C68.6009 62.3105 68.1134 62.7891 68.1134 63.3946Z" fill="#E1D1C2"/>
<path d="M58.4406 63.2776C58.431 63.8831 58.909 64.3812 59.5016 64.391C60.0942 64.4007 60.5816 63.9124 60.5912 63.3069C60.6008 62.7013 60.1229 62.2033 59.5302 62.1935C58.9376 62.1837 58.4501 62.6721 58.4406 63.2776Z" fill="#E1D1C2"/>
<path d="M48.7677 63.1604C48.7582 63.7659 49.2361 64.264 49.8287 64.2738C50.4214 64.2836 50.9088 63.7952 50.9184 63.1897C50.9279 62.5842 50.45 62.0861 49.8574 62.0763C49.2648 62.0665 48.7773 62.5549 48.7677 63.1604Z" fill="#E1D1C2"/>
<path d="M39.1037 63.0432C39.0941 63.6487 39.572 64.1468 40.1646 64.1566C40.7572 64.1664 41.2447 63.678 41.2543 63.0725C41.2638 62.467 40.7859 61.9689 40.1933 61.9591C39.5911 61.9494 39.1037 62.4377 39.1037 63.0432Z" fill="#E1D1C2"/>
<path d="M29.4308 62.926C29.4212 63.5316 29.8992 64.0297 30.4918 64.0394C31.0844 64.0492 31.5719 63.5609 31.5814 62.9553C31.591 62.3498 31.1131 61.8517 30.5205 61.8419C29.9279 61.8322 29.4404 62.3108 29.4308 62.926Z" fill="#E1D1C2"/>
<path d="M19.758 62.7989C19.7484 63.4044 20.2263 63.9026 20.8189 63.9123C21.4115 63.9221 21.899 63.4337 21.9086 62.8282C21.9181 62.2227 21.4402 61.7246 20.8476 61.7148C20.255 61.7148 19.7675 62.1934 19.758 62.7989Z" fill="#E1D1C2"/>
<path d="M10.0939 62.6819C10.0843 63.2874 10.5623 63.7855 11.1549 63.7953C11.7475 63.805 12.235 63.3167 12.2445 62.7112C12.2541 62.1057 11.7762 61.6076 11.1836 61.5978C10.5814 61.588 10.0939 62.0764 10.0939 62.6819Z" fill="#E1D1C2"/>
<path d="M0.421039 62.5647C0.411481 63.1702 0.889415 63.6683 1.48203 63.6781C2.07465 63.6879 2.56211 63.1995 2.57167 62.594C2.58123 61.9885 2.10333 61.4904 1.51071 61.4806C0.918088 61.4708 0.430598 61.9592 0.421039 62.5647Z" fill="#E1D1C2"/>
<path d="M97.0177 72.5364C97.0082 73.1419 97.4861 73.64 98.0787 73.6498C98.6713 73.6595 99.1588 73.1712 99.1684 72.5657C99.1779 71.9601 98.6999 71.4621 98.1073 71.4523C97.5147 71.4425 97.0177 71.9308 97.0177 72.5364Z" fill="#E1D1C2"/>
<path d="M87.3449 72.4192C87.3353 73.0247 87.8132 73.5228 88.4058 73.5326C88.9985 73.5423 89.4859 73.054 89.4955 72.4485C89.5051 71.843 89.0271 71.3449 88.4345 71.3351C87.8419 71.3253 87.3544 71.8137 87.3449 72.4192Z" fill="#E1D1C2"/>
<path d="M77.671 72.302C77.6615 72.9075 78.1394 73.4056 78.7321 73.4154C79.3247 73.4252 79.8121 72.9368 79.8217 72.3313C79.8312 71.7258 79.3533 71.2277 78.7607 71.2179C78.1681 71.2082 77.6806 71.6965 77.671 72.302Z" fill="#E1D1C2"/>
<path d="M68.008 72.1848C67.9984 72.7904 68.4763 73.2884 69.0689 73.2982C69.6615 73.308 70.149 72.8197 70.1586 72.2141C70.1681 71.6086 69.6902 71.1105 69.0976 71.1007C68.4954 71.091 68.0175 71.5793 68.008 72.1848Z" fill="#E1D1C2"/>
<path d="M58.3351 72.0577C58.3255 72.6633 58.8034 73.1613 59.3961 73.1711C59.9887 73.1809 60.4762 72.6926 60.4857 72.087C60.4953 71.4815 60.0174 70.9834 59.4248 70.9736C58.8322 70.9736 58.3447 71.462 58.3351 72.0577Z" fill="#E1D1C2"/>
<path d="M48.6623 71.9407C48.6527 72.5462 49.1306 73.0443 49.7232 73.0541C50.3158 73.0638 50.8033 72.5755 50.8129 71.97C50.8224 71.3645 50.3445 70.8664 49.7519 70.8566C49.1593 70.8468 48.6718 71.3352 48.6623 71.9407Z" fill="#E1D1C2"/>
<path d="M38.9982 71.8235C38.9886 72.429 39.4665 72.9271 40.0592 72.9369C40.6518 72.9466 41.1393 72.4583 41.1488 71.8528C41.1584 71.2472 40.6805 70.7492 40.0879 70.7394C39.4857 70.7296 38.9982 71.2179 38.9982 71.8235Z" fill="#E1D1C2"/>
<path d="M29.3253 71.7063C29.3158 72.3118 29.7937 72.8099 30.3863 72.8197C30.9789 72.8295 31.4664 72.3411 31.476 71.7356C31.4855 71.1301 31.0076 70.632 30.415 70.6222C29.8224 70.6124 29.3349 71.1008 29.3253 71.7063Z" fill="#E1D1C2"/>
<path d="M19.6525 71.5891C19.6429 72.1946 20.1209 72.6927 20.7135 72.7025C21.3061 72.7123 21.7936 72.2239 21.8031 71.6184C21.8127 71.0129 21.3348 70.5148 20.7422 70.505C20.1495 70.4953 19.662 70.9836 19.6525 71.5891Z" fill="#E1D1C2"/>
<path d="M9.98842 71.4719C9.97886 72.0775 10.4568 72.5756 11.0494 72.5853C11.642 72.5951 12.1295 72.1068 12.1391 71.5012C12.1486 70.8957 11.6707 70.3976 11.0781 70.3878C10.4759 70.3781 9.98842 70.8567 9.98842 71.4719Z" fill="#E1D1C2"/>
<path d="M0.315571 71.345C0.306012 71.9505 0.783917 72.4486 1.37654 72.4584C1.96915 72.4681 2.45665 71.9798 2.4662 71.3743C2.47576 70.7687 1.99783 70.2707 1.40521 70.2609C0.812591 70.2511 0.325129 70.7394 0.315571 71.345Z" fill="#E1D1C2"/>
<path d="M96.9123 81.3264C96.9027 81.9319 97.3807 82.43 97.9733 82.4398C98.5659 82.4496 99.0533 81.9612 99.0629 81.3557C99.0724 80.7502 98.5945 80.2521 98.0019 80.2423C97.4093 80.2326 96.9218 80.7209 96.9123 81.3264Z" fill="#E1D1C2"/>
<path d="M87.2394 81.2097C87.2298 81.8152 87.7078 82.3133 88.3004 82.323C88.893 82.323 89.3805 81.8445 89.39 81.239C89.3996 80.6334 88.9217 80.1353 88.3291 80.1256C87.7364 80.106 87.249 80.5944 87.2394 81.2097Z" fill="#E1D1C2"/>
<path d="M77.5753 81.0823C77.5658 81.6878 78.0437 82.1859 78.6363 82.1957C79.2289 82.2054 79.7164 81.7171 79.726 81.1116C79.7355 80.506 79.2576 80.008 78.665 79.9982C78.0628 79.9884 77.5753 80.4767 77.5753 81.0823Z" fill="#E1D1C2"/>
<path d="M67.9025 80.9651C67.8929 81.5706 68.3708 82.0687 68.9634 82.0785C69.5561 82.0882 70.0436 81.5999 70.0531 80.9944C70.0627 80.3889 69.5848 79.8908 68.9922 79.881C68.3995 79.8712 67.912 80.3596 67.9025 80.9651Z" fill="#E1D1C2"/>
<path d="M58.2296 80.8479C58.2201 81.4534 58.698 81.9515 59.2906 81.9613C59.8832 81.9711 60.3707 81.4827 60.3803 80.8772C60.3898 80.2717 59.9119 79.7736 59.3193 79.7638C58.7267 79.754 58.2392 80.2424 58.2296 80.8479Z" fill="#E1D1C2"/>
<path d="M48.5656 80.7307C48.556 81.3363 49.0339 81.8343 49.6265 81.8441C50.2192 81.8539 50.7066 81.3656 50.7162 80.76C50.7258 80.1545 50.2478 79.6564 49.6552 79.6466C49.053 79.6369 48.5656 80.1252 48.5656 80.7307Z" fill="#E1D1C2"/>
<path d="M38.8927 80.6036C38.8832 81.2092 39.3611 81.7072 39.9537 81.717C40.5463 81.7268 41.0338 81.2385 41.0434 80.6329C41.0529 80.0274 40.5749 79.5293 39.9823 79.5195C39.3802 79.5195 38.9023 79.9981 38.8927 80.6036Z" fill="#E1D1C2"/>
<path d="M29.2199 80.4866C29.2103 81.0921 29.6882 81.5902 30.2808 81.6C30.8735 81.6097 31.3609 81.1214 31.3705 80.5159C31.3801 79.9104 30.9021 79.4123 30.3095 79.4025C29.7169 79.3927 29.2294 79.8811 29.2199 80.4866Z" fill="#E1D1C2"/>
<path d="M19.547 80.3694C19.5375 80.9749 20.0154 81.473 20.608 81.4828C21.2006 81.4925 21.6881 81.0042 21.6976 80.3987C21.7072 79.7931 21.2293 79.2951 20.6367 79.2853C20.044 79.2755 19.5566 79.7638 19.547 80.3694Z" fill="#E1D1C2"/>
<path d="M9.88295 80.2522C9.8734 80.8577 10.3513 81.3558 10.9439 81.3656C11.5366 81.3754 12.024 80.887 12.0336 80.2815C12.0431 79.676 11.5652 79.1779 10.9726 79.1681C10.38 79.1583 9.89251 79.6467 9.88295 80.2522Z" fill="#E1D1C2"/>
<path d="M0.210102 80.135C0.200543 80.7405 0.678477 81.2386 1.2711 81.2484C1.86371 81.2582 2.35118 80.7698 2.36073 80.1643C2.37029 79.5588 1.89239 79.0607 1.29977 79.0509C0.707151 79.0412 0.21966 79.5197 0.210102 80.135Z" fill="#E1D1C2"/>
<path d="M96.8078 90.1067C96.7982 90.7122 97.2761 91.2103 97.8687 91.2201C98.4613 91.2298 98.9488 90.7415 98.9584 90.136C98.9679 89.5305 98.49 89.0324 97.8974 89.0226C97.3048 89.0128 96.8173 89.5012 96.8078 90.1067Z" fill="#E1D1C2"/>
<path d="M87.1349 89.9895C87.1253 90.595 87.6033 91.0931 88.1959 91.1029C88.7885 91.1127 89.276 90.6243 89.2855 90.0188C89.2951 89.4133 88.8172 88.9152 88.2246 88.9054C87.632 88.8957 87.1445 89.384 87.1349 89.9895Z" fill="#E1D1C2"/>
<path d="M77.4708 89.8624C77.4613 90.4679 77.9392 90.966 78.5318 90.9758C79.1244 90.9856 79.6119 90.4972 79.6215 89.8917C79.631 89.2862 79.1531 88.7881 78.5605 88.7783C77.9583 88.7783 77.4708 89.2569 77.4708 89.8624Z" fill="#E1D1C2"/>
<path d="M67.798 89.7453C67.7884 90.3509 68.2663 90.849 68.859 90.8588C69.4516 90.8685 69.9391 90.3802 69.9486 89.7746C69.9582 89.1691 69.4803 88.671 68.8877 88.6613C68.295 88.6515 67.8076 89.1398 67.798 89.7453Z" fill="#E1D1C2"/>
<path d="M58.1251 89.6282C58.1156 90.2337 58.5935 90.7318 59.1861 90.7416C59.7787 90.7513 60.2662 90.263 60.2758 89.6575C60.2853 89.0519 59.8074 88.5539 59.2148 88.5441C58.6221 88.5343 58.1347 89.0226 58.1251 89.6282Z" fill="#E1D1C2"/>
<path d="M48.4611 89.511C48.4515 90.1165 48.9295 90.6146 49.5221 90.6244C50.1147 90.6341 50.6022 90.1458 50.6117 89.5403C50.6213 88.9348 50.1434 88.4367 49.5507 88.4269C48.9486 88.4171 48.4611 88.9055 48.4611 89.511Z" fill="#E1D1C2"/>
<path d="M38.7882 89.3938C38.7787 89.9993 39.2566 90.4974 39.8493 90.5072C40.4419 90.517 40.9293 90.0286 40.9389 89.4231C40.9484 88.8176 40.4705 88.3195 39.8779 88.3097C39.2853 88.3 38.7978 88.7785 38.7882 89.3938Z" fill="#E1D1C2"/>
<path d="M29.1154 89.2669C29.1058 89.8724 29.5838 90.3705 30.1764 90.3802C30.769 90.39 31.2564 89.9017 31.266 89.2962C31.2756 88.6906 30.7977 88.1925 30.205 88.1828C29.6124 88.173 29.1249 88.6613 29.1154 89.2669Z" fill="#E1D1C2"/>
<path d="M19.4513 89.1497C19.4418 89.7552 19.9197 90.2533 20.5123 90.263C21.1049 90.2728 21.5924 89.7845 21.6019 89.179C21.6115 88.5734 21.1336 88.0753 20.541 88.0656C19.9388 88.0558 19.4513 88.5442 19.4513 89.1497Z" fill="#E1D1C2"/>
<path d="M9.77846 89.0325C9.7689 89.638 10.2468 90.1361 10.8394 90.1459C11.432 90.1556 11.9195 89.6673 11.9291 89.0618C11.9387 88.4563 11.4607 87.9582 10.8681 87.9484C10.2755 87.9386 9.78802 88.427 9.77846 89.0325Z" fill="#E1D1C2"/>
<path d="M0.10561 88.9153C0.0960513 89.5208 0.573956 90.0189 1.16657 90.0287C1.75919 90.0384 2.24668 89.5501 2.25624 88.9446C2.2658 88.339 1.78787 87.841 1.19525 87.8312C0.60263 87.8214 0.115168 88.3097 0.10561 88.9153Z" fill="#E1D1C2"/>
<path d="M96.7023 98.886C96.6927 99.4915 97.1706 99.9896 97.7633 99.9994C98.3559 100.009 98.8434 99.5208 98.8529 98.9153C98.8625 98.3098 98.3846 97.8117 97.792 97.8019C97.1993 97.7921 96.7118 98.2805 96.7023 98.886Z" fill="#E1D1C2"/>
<path d="M87.0392 98.7688C87.0296 99.3743 87.5075 99.8724 88.1002 99.8822C88.6928 99.892 89.1803 99.4036 89.1898 98.7981C89.1994 98.1926 88.7214 97.6945 88.1288 97.6847C87.5266 97.6749 87.0392 98.1633 87.0392 98.7688Z" fill="#E1D1C2"/>
<path d="M77.3654 98.6516C77.3558 99.2571 77.8337 99.7552 78.4263 99.765C79.019 99.765 79.5064 99.2864 79.516 98.6809C79.5256 98.0754 79.0476 97.5773 78.455 97.5675C77.8528 97.5578 77.3749 98.0461 77.3654 98.6516Z" fill="#E1D1C2"/>
<path d="M67.6925 98.5344C67.683 99.1399 68.1609 99.638 68.7535 99.6478C69.3461 99.6576 69.8336 99.1692 69.8432 98.5637C69.8527 97.9582 69.3748 97.4601 68.7821 97.4503C68.1895 97.4406 67.7021 97.9289 67.6925 98.5344Z" fill="#E1D1C2"/>
<path d="M58.0197 98.4073C58.0101 99.0128 58.4881 99.5109 59.0807 99.5207C59.6733 99.5305 60.1607 99.0421 60.1703 98.4366C60.1799 97.8311 59.702 97.333 59.1093 97.3232C58.5167 97.3232 58.0292 97.8018 58.0197 98.4073Z" fill="#E1D1C2"/>
<path d="M48.3556 98.2903C48.3461 98.8958 48.824 99.3939 49.4166 99.4037C50.0092 99.4134 50.4967 98.9251 50.5062 98.3196C50.5158 97.714 50.0379 97.216 49.4453 97.2062C48.8527 97.1964 48.3652 97.6847 48.3556 98.2903Z" fill="#E1D1C2"/>
<path d="M38.6828 98.1731C38.6732 98.7786 39.1511 99.2767 39.7437 99.2865C40.3363 99.2963 40.8238 98.8079 40.8334 98.2024C40.8429 97.5969 40.365 97.0988 39.7724 97.089C39.1798 97.0792 38.6923 97.5676 38.6828 98.1731Z" fill="#E1D1C2"/>
<path d="M29.0197 98.0559C29.0101 98.6615 29.488 99.1595 30.0806 99.1693C30.6733 99.1791 31.1607 98.6908 31.1703 98.0852C31.1799 97.4797 30.702 96.9816 30.1093 96.9718C29.5072 96.9621 29.0197 97.4504 29.0197 98.0559Z" fill="#E1D1C2"/>
<path d="M19.3458 97.9288C19.3363 98.5343 19.8142 99.0324 20.4068 99.0422C20.9994 99.052 21.4869 98.5636 21.4965 97.9581C21.506 97.3526 21.0281 96.8545 20.4355 96.8447C19.8333 96.8447 19.3554 97.3233 19.3458 97.9288Z" fill="#E1D1C2"/>
<path d="M9.67299 97.8118C9.66343 98.4173 10.1414 98.9154 10.734 98.9252C11.3266 98.9349 11.8141 98.4466 11.8236 97.8411C11.8332 97.2356 11.3553 96.7374 10.7627 96.7277C10.17 96.7179 9.68255 97.2063 9.67299 97.8118Z" fill="#E1D1C2"/>
<path d="M0.000140913 97.6946C-0.00941745 98.3001 0.468516 98.7982 1.06113 98.808C1.65375 98.8177 2.14122 98.3294 2.15077 97.7239C2.16033 97.1184 1.68243 96.6203 1.08981 96.6105C0.49719 96.6007 0.00969928 97.0891 0.000140913 97.6946Z" fill="#E1D1C2"/>
</svg>
