<svg width="144" height="144" viewBox="0 0 144 144" fill="none" xmlns="http://www.w3.org/2000/svg">
<g clip-path="url(#clip0_295_8593)">
<path d="M144 72C144 85.6069 140.225 98.3312 133.661 109.186C128.07 118.452 120.443 126.346 111.403 132.272C110.855 132.629 110.298 132.982 109.742 133.326C108.556 134.06 107.342 134.757 106.107 135.422C105.926 135.522 105.745 135.617 105.563 135.712C102.829 137.16 99.9911 138.432 97.0578 139.519H97.0532C90.5709 141.927 83.645 143.43 76.4294 143.864C75.2072 143.941 73.9714 143.982 72.7265 143.995C72.6405 143.995 72.55 143.995 72.464 143.995C72.3101 143.995 72.1562 143.995 72.0023 143.995H71.9344C71.6673 143.995 71.4047 143.995 71.1422 143.995C69.9426 143.982 68.7566 143.937 67.5751 143.864C60.3323 143.425 53.3793 141.918 46.8698 139.492C44.3439 138.55 41.8859 137.473 39.5094 136.264C38.9616 135.992 38.4229 135.712 37.8888 135.422C36.662 134.761 35.4534 134.064 34.2719 133.335C33.6789 132.969 33.095 132.598 32.511 132.217C23.5119 126.301 15.9115 118.42 10.3345 109.186C3.7753 98.3312 0 85.6069 0 72C0 32.2384 32.2349 0 72.0023 0C111.77 0 144 32.2384 144 72Z" fill="#BF9D7D"/>
<path d="M144 72C144 85.6069 140.225 98.3312 133.661 109.186C128.07 118.452 120.443 126.346 111.403 132.272C110.855 132.629 110.298 132.982 109.742 133.326C108.556 134.06 107.342 134.757 106.107 135.422C105.926 135.522 105.745 135.617 105.563 135.712C102.829 137.16 99.9911 138.432 97.0578 139.519H97.0532C90.5709 141.927 83.645 143.43 76.4294 143.864C75.2072 143.941 73.9714 143.982 72.7265 143.995C72.6405 143.995 72.55 143.995 72.464 143.995C72.3101 143.995 72.1562 143.995 72.0023 143.995H71.9344C71.6673 143.995 71.4047 143.995 71.1422 143.995C69.9426 143.982 68.7566 143.937 67.5751 143.864C60.3323 143.425 53.3793 141.918 46.8698 139.492C44.3439 138.55 41.8859 137.473 39.5094 136.264C38.9616 135.992 38.4229 135.712 37.8888 135.422C36.662 134.761 35.4534 134.064 34.2719 133.335C33.6789 132.969 33.095 132.598 32.511 132.217C23.5119 126.301 15.9115 118.42 10.3345 109.186C3.7753 98.3312 0 85.6069 0 72C0 32.2384 32.2349 0 72.0023 0C111.77 0 144 32.2384 144 72Z" fill="black" fill-opacity="0.2"/>
<path d="M83.052 119.642V104.071H60.8121V119.642C60.8121 119.642 41.5147 122.164 32.511 132.217C33.0949 132.598 33.6789 132.969 34.2719 133.335C35.4534 134.064 36.662 134.761 37.8887 135.422C40.7678 136.975 43.769 138.337 46.8698 139.492C53.3792 141.918 60.3323 143.425 67.5751 143.864C68.7566 143.937 69.9426 143.982 71.1422 143.995C71.4047 143.995 71.6673 143.995 71.9343 143.995H72.0022C72.2421 143.995 72.4866 143.995 72.7265 143.995C73.9714 143.982 75.2072 143.941 76.4294 143.864C83.645 143.43 90.5709 141.927 97.0532 139.519H97.0577C100.186 138.36 103.205 136.988 106.107 135.422C107.342 134.757 108.556 134.06 109.742 133.326C110.298 132.982 110.855 132.629 111.403 132.272C102.422 122.173 83.052 119.642 83.052 119.642Z" fill="#FDDCAB"/>
<path d="M31.2481 70.0807C32.0493 79.2652 37.8571 79.8174 37.8571 79.8174L37.9431 61.4304C37.9431 61.4304 30.4378 60.8917 31.2481 70.0807Z" fill="#FDDCAB"/>
<path d="M72.0068 24.688C53.0443 24.688 37.676 40.0604 37.676 59.0177V79.0117C37.676 97.9736 53.0488 113.341 72.0068 113.341L72.0068 24.688Z" fill="#FDDCAB"/>
<path d="M112.603 69.8046C111.801 78.9891 105.993 79.5413 105.993 79.5413L105.907 61.1543C105.907 61.1543 113.413 60.6156 112.603 69.8046Z" fill="#FFEAD5"/>
<path d="M72.0068 24.688L72.0068 113.346C90.9693 113.346 106.338 97.9736 106.338 79.0162V59.0223C106.338 40.0604 90.9648 24.6926 72.0068 24.6926V24.688Z" fill="#FFEAD5"/>
<path d="M111.403 132.272L105.563 135.712C102.829 137.16 99.9911 138.432 97.0577 139.519H97.0532C90.5709 141.927 83.645 143.43 76.4294 143.864C75.2072 143.941 73.9714 143.982 72.7265 143.995C72.6405 143.995 72.55 143.995 72.464 143.995V133.693H72.4776C72.6315 133.693 72.7718 133.679 72.9302 133.679C86.0216 133.408 88.3981 120.312 88.3981 120.312C88.7467 120.335 89.0862 120.367 89.4211 120.416C102.694 122.462 111.403 132.272 111.403 132.272Z" fill="#FF3932"/>
<path d="M72.464 133.693V143.995C72.3101 143.995 72.1561 143.995 72.0022 143.995H71.9343C71.6673 143.995 71.4047 143.995 71.1422 143.995C69.9426 143.982 68.7566 143.937 67.5751 143.864C60.3323 143.425 53.3792 141.918 46.8698 139.492C44.3439 138.55 41.8859 137.473 39.5093 136.264L32.511 132.217C32.511 132.217 40.9579 122.345 55.5113 120.416C55.8508 120.371 56.1813 120.335 56.5344 120.312C56.5344 120.312 58.9109 133.408 71.9977 133.679C72.1561 133.679 72.301 133.693 72.4549 133.693H72.464Z" fill="#DB242D"/>
<path d="M66.9368 73.8106V65.4455C66.9368 65.2101 66.7513 65.0245 66.543 65.0245H50.0204V73.7609C50.0204 76.0332 51.8628 77.8755 54.1352 77.8755H62.8718C65.1171 77.8755 66.9368 76.0558 66.9368 73.8106ZM69.5759 62.3855V73.8106C69.5759 77.5134 66.5747 80.5145 62.8718 80.5145H54.1624C50.4324 80.5145 47.3813 77.4636 47.3813 73.7337V62.9423C47.3813 62.6345 47.6303 62.3901 47.9336 62.3901H69.5759V62.3855Z" fill="#1F1F24"/>
<path d="M76.9545 74.3674V65.4455C76.9545 65.2101 77.1401 65.0245 77.3483 65.0245H93.8709V74.3131C93.8709 76.2822 92.2775 77.8755 90.3084 77.8755H80.4627C78.5253 77.8755 76.9545 76.3048 76.9545 74.3674ZM74.3154 62.3855V74.3674C74.3154 77.7624 77.0677 80.5145 80.4627 80.5145H90.2812C93.708 80.5145 96.51 77.7126 96.51 74.2859V62.3855H74.3154Z" fill="#1F1F24"/>
<path d="M48.6941 65.0245H40.6954L39.8987 62.3855H48.6941V65.0245Z" fill="#1F1F24"/>
<path d="M95.1973 65.0245H103.201L103.993 62.3855H95.1973V65.0245Z" fill="#1F1F24"/>
<path d="M74.9447 62.3855H68.9468V65.0245H74.9447V62.3855Z" fill="#1F1F24"/>
<path d="M40.6773 65.0426L40.6773 55.1747C40.6773 53.2871 41.0802 51.4991 41.7818 49.8695C62.9443 32.7273 78.2945 64.8208 103.074 52.9114C103.201 53.6492 103.3 54.3961 103.3 55.1701L103.146 64.7303C105.278 62.6119 106.79 61.2674 108.673 61.5798L109.769 54.3282C110.05 46.7597 107.189 39.4266 102.001 33.9268C94.4957 25.9691 86.9903 23.3889 71.9842 23.3889C56.9781 23.3889 49.4682 25.9691 41.9674 33.9268C36.7798 39.4312 33.9189 46.7597 34.1995 54.3282L35.295 61.8469C37.1827 61.5391 39.1246 62.8201 40.6682 65.0426H40.6773Z" fill="#1F1F24"/>
</g>
<defs>
<clipPath id="clip0_295_8593">
<rect width="144" height="144" fill="white"/>
</clipPath>
</defs>
</svg>
