<svg width="72" height="72" viewBox="0 0 72 72" fill="none" xmlns="http://www.w3.org/2000/svg">
<g clip-path="url(#clip0_494_7645)">
<path d="M72 36C72 42.8035 70.1124 49.1656 66.8305 54.593C65.0107 57.61 62.7587 60.3372 60.1603 62.6888C58.5262 64.169 56.7562 65.5021 54.8708 66.6631C54.2778 67.0298 53.6712 67.3783 53.0533 67.7111C51.6025 68.4942 50.0929 69.1799 48.5289 69.7593H48.5266C45.2855 70.9634 41.8225 71.7148 38.2147 71.9321C37.4836 71.9774 36.7458 72 36.0011 72H35.9672C35.2339 72 34.5073 71.9774 33.7876 71.9321C30.1662 71.7126 26.6896 70.9589 23.4349 69.7458C21.8845 69.1686 20.3839 68.4874 18.9444 67.7111C18.331 67.3806 17.7267 67.0321 17.136 66.6677C15.2483 65.5043 13.4761 64.1713 11.8397 62.6888C9.2436 60.3372 6.98928 57.61 5.16727 54.593C1.88765 49.1656 0 42.8035 0 36C0 16.1192 16.1174 0 36.0011 0C55.8848 0 72 16.1192 72 36Z" fill="#BF9D7D"/>
<path d="M72 36C72 42.8035 70.1124 49.1656 66.8305 54.593C65.0107 57.61 62.7587 60.3372 60.1603 62.6888C58.5262 64.169 56.7562 65.5021 54.8708 66.6631C54.2778 67.0298 53.6712 67.3783 53.0533 67.7111C51.6025 68.4942 50.0929 69.1799 48.5289 69.7593H48.5266C45.2855 70.9634 41.8225 71.7148 38.2147 71.9321C37.4836 71.9774 36.7458 72 36.0011 72H35.9672C35.2339 72 34.5073 71.9774 33.7876 71.9321C30.1662 71.7126 26.6896 70.9589 23.4349 69.7458C21.8845 69.1686 20.3839 68.4874 18.9444 67.7111C18.331 67.3806 17.7267 67.0321 17.136 66.6677C15.2483 65.5043 13.4761 64.1713 11.8397 62.6888C9.2436 60.3372 6.98928 57.61 5.16727 54.593C1.88765 49.1656 0 42.8035 0 36C0 16.1192 16.1174 0 36.0011 0C55.8848 0 72 16.1192 72 36Z" fill="black" fill-opacity="0.2"/>
<path d="M36.033 14.759V71.9321H33.7877C30.1663 71.7126 26.6898 70.9589 23.4351 69.7458C21.8847 69.1686 20.3841 68.4874 18.9446 67.7111C18.3312 67.3806 17.7269 67.0321 17.1361 66.6677C15.2485 65.5043 13.4763 64.1713 11.8398 62.6888C12.1612 41.6945 14.4472 28.0309 19.3474 21.6394C28.917 9.15504 35.6573 14.759 35.6573 14.759H36.033Z" fill="black"/>
<path d="M60.1604 62.6888C58.5263 64.169 56.7563 65.5021 54.8709 66.6632C54.2779 67.0298 53.6713 67.3784 53.0534 67.7111C51.6026 68.4942 50.093 69.1799 48.529 69.7593H48.5267C45.2856 70.9634 41.8226 71.7148 38.2148 71.9321H35.9673V14.759H36.343C36.343 14.759 43.0833 9.15504 52.6528 21.6394C57.553 28.0309 59.839 41.6945 60.1604 62.6888Z" fill="black"/>
<path d="M39.2991 54.9644H32.6357V61.6184H39.2991V54.9644Z" fill="#FDDCAB"/>
<path d="M36.0625 61.6182V71.932H33.7878C30.1664 71.7125 26.6899 70.9588 23.4352 69.7457C21.8848 69.1685 20.3842 68.4873 18.9447 67.711C18.3313 67.3805 17.727 67.032 17.1362 66.6676C19.5535 64.9746 23.1138 63.2772 28.2992 62.2587C28.2992 62.2587 28.3241 62.2541 28.3671 62.2451C28.8356 62.1546 29.3199 62.0686 29.8156 61.9871C30.7096 61.8445 31.6489 61.72 32.6358 61.6182H36.0625Z" fill="#FDDCAB"/>
<path d="M54.8711 66.6631C54.2781 67.0297 53.6715 67.3783 53.0536 67.711C51.6028 68.4941 50.0931 69.1798 48.5291 69.7592H48.5269C45.2857 70.9633 41.8228 71.7147 38.215 71.932H36.0625V61.6182H39.2969C40.2905 61.72 41.2388 61.8468 42.1419 61.9916C42.6625 62.0753 43.1672 62.1659 43.6584 62.2632C48.8392 63.2817 52.4244 64.9746 54.8711 66.6631Z" fill="#FFEAD5"/>
<path d="M35.9877 69.3951V72.0001H35.9673C35.234 72.0001 34.5075 71.9775 33.7877 71.9322C30.1663 71.7127 26.6898 70.959 23.4351 69.7459C25.0737 67.0594 27.6766 62.8541 28.299 62.2589C28.299 62.2589 28.3239 62.2544 28.3669 62.2453C28.6023 62.1955 29.3922 62.0348 29.8155 61.9873C29.8155 61.9873 27.3462 69.1054 35.9673 69.3951H35.9877Z" fill="#97F8C0"/>
<path d="M48.5267 69.7595C45.2856 70.9635 41.8226 71.715 38.2148 71.9322C37.4837 71.9775 36.7459 72.0001 36.0012 72.0001H35.9673V69.3951H35.9877C36.0126 69.3928 36.0374 69.3928 36.0623 69.3905C44.4708 69.0692 42.2074 62.1887 42.1418 61.9918C42.1395 61.9896 42.1395 61.9873 42.1395 61.9873C42.642 62.0439 43.6537 62.2589 43.6537 62.2589L43.6582 62.2634C44.2874 62.8745 46.8926 67.0775 48.5267 69.7595Z" fill="#CAFBDA"/>
<path d="M15.6243 35.0405C16.025 39.6328 18.9289 39.9089 18.9289 39.9089L18.9719 30.7154C18.9719 30.7154 15.2192 30.446 15.6243 35.0405Z" fill="#FDDCAB"/>
<path d="M18.8384 20.499V39.5062C18.8384 48.9871 26.5248 56.671 36.0038 56.671V20.499H18.8384Z" fill="#FDDCAB"/>
<path d="M56.3036 34.9023C55.903 39.4946 52.9991 39.7707 52.9991 39.7707L52.9561 30.5772C52.9561 30.5772 56.7087 30.3079 56.3036 34.9023Z" fill="#FFEAD5"/>
<path d="M36.0034 20.499V56.6733C45.4847 56.6733 53.1688 48.9871 53.1688 39.5085V20.499H36.0034Z" fill="#FFEAD5"/>
<path d="M54.3956 25.3853C54.3956 26.3019 54.3277 27.2072 54.1964 28.0876H17.9282C17.7969 27.2072 17.729 26.3019 17.729 25.3853C17.729 24.102 17.8603 22.8481 18.1115 21.6372C19.843 13.3106 27.2193 7.05029 36.0623 7.05029C44.9053 7.05029 52.2838 13.3106 54.0131 21.6372C54.2666 22.8481 54.3978 24.0997 54.3978 25.3853H54.3956Z" fill="#CAFBDA"/>
<path d="M18.7793 25.0119C17.2175 27.2367 18.8381 30.7109 18.8381 30.7109L29.691 26.7003C29.691 26.7003 20.341 22.7871 18.7793 25.0096V25.0119Z" fill="black"/>
<path d="M54.4295 21.6396H17.6384C16.6597 21.6396 15.8662 22.4331 15.8662 23.4118V26.3179C15.8662 27.2966 16.6597 28.09 17.6384 28.09H54.4295C55.4082 28.09 56.2017 27.2966 56.2017 26.3179V23.4118C56.2017 22.4331 55.4082 21.6396 54.4295 21.6396Z" fill="#97F8C0"/>
</g>
<defs>
<clipPath id="clip0_494_7645">
<rect width="72" height="72" fill="white"/>
</clipPath>
</defs>
</svg>
