<svg width="72" height="72" viewBox="0 0 72 72" fill="none" xmlns="http://www.w3.org/2000/svg">
<g clip-path="url(#clip0_494_7717)">
<path d="M72 36C72 48.5704 65.5587 59.6333 55.7971 66.0724C50.1184 69.8204 43.315 72 36 72C35.579 72 35.1603 71.9932 34.7416 71.9774C27.6032 71.7329 20.9921 69.4108 15.4945 65.5926C6.13127 59.0924 0 48.2625 0 36C0 16.1192 16.1192 0 36 0C55.8808 0 72 16.1192 72 36Z" fill="#BF9D7D"/>
<path d="M72 36C72 48.5704 65.5587 59.6333 55.7971 66.0724C50.1184 69.8204 43.315 72 36 72C35.579 72 35.1603 71.9932 34.7416 71.9774C27.6032 71.7329 20.9921 69.4108 15.4945 65.5926C6.13127 59.0924 0 48.2625 0 36C0 16.1192 16.1192 0 36 0C55.8808 0 72 16.1192 72 36Z" fill="black" fill-opacity="0.2"/>
<path d="M28.7189 28.0534C27.8566 26.8765 12.4753 29.5314 11.5926 26.7724C10.9453 24.7535 10.6148 16.9882 11.1218 15.7954C9.58955 19.4008 8.4149 23.2213 7.50506 27.0893C7.37152 27.6619 7.24025 28.2888 7.14293 28.9361C6.94376 30.2624 6.88491 31.6679 7.24025 32.8584C7.80834 34.7664 9.2478 35.047 10.9362 35.2575C15.9042 35.8822 20.8381 36.8237 25.711 38.0776C25.6499 37.2017 25.6703 36.3213 25.7653 35.4499C26.0618 32.7226 27.0939 30.0949 28.7189 28.0512V28.0534Z" fill="#29609B"/>
<path d="M64.1963 28.7165C64.099 28.0692 63.97 27.4423 63.8364 26.8697C62.9311 22.9994 61.761 19.179 60.2333 15.5713C60.738 16.764 60.4008 24.5294 59.7512 26.5483C58.864 29.305 43.4871 26.6343 42.6226 27.8112C44.2453 29.8572 45.2751 32.4872 45.5694 35.2144C45.6622 36.0858 45.6825 36.9662 45.6214 37.8421C50.4966 36.5928 55.4328 35.6558 60.4008 35.0379C62.0892 34.8274 63.5286 34.549 64.099 32.6411C64.4543 31.4506 64.3977 30.0428 64.2008 28.7188L64.1963 28.7165Z" fill="#5494CD"/>
<path d="M57.2796 44.5441C58.3524 49.3853 58.7236 54.4505 58.3773 59.4819C57.73 59.1107 57.0827 58.7418 56.4331 58.3706C56.3969 60.9439 56.1842 63.5218 55.7971 66.0726C50.1185 69.8206 43.3151 72.0001 36.0001 72.0001C35.5791 72.0001 35.1604 71.9934 34.7417 71.9775V23.9979C34.7417 23.9979 37.564 20.311 43.5052 20.7953C42.6202 21.2163 40.7824 22.4136 40.2822 23.7693C42.9892 23.0292 45.567 23.6312 47.4478 24.9598C46.4565 25.1703 45.6757 25.9058 45.6168 26.3857C47.0721 26.6867 48.5003 27.1326 49.8809 27.7097C52.0401 28.6105 54.0861 29.8395 55.9443 31.3559C54.9394 31.3943 53.9345 31.4328 52.9296 31.4713C54.4324 32.4785 55.7111 33.8908 56.6436 35.5656C56.7455 35.7444 56.8405 35.9277 56.9333 36.1133C56.4173 35.8666 55.822 35.8259 55.2721 36.0002C57.687 38.7229 59.3618 42.2785 60.0363 46.1058C59.1174 45.5852 58.1985 45.0647 57.2796 44.5441Z" fill="#08BED0"/>
<path d="M34.7416 23.9975V71.9772C27.6032 71.7327 20.9921 69.4106 15.4946 65.5924C14.6594 62.4781 14.1864 59.2258 14.0958 55.944C14.0891 55.6973 13.8039 55.6181 13.6907 55.8331C13.5368 56.1273 13.3512 56.4034 13.1385 56.6479C12.9959 56.8131 12.7514 56.7135 12.7537 56.4872C12.7831 52.8478 13.3806 49.1948 14.5078 45.7433C14.5847 45.5079 14.3539 45.311 14.1751 45.4604C13.143 46.3023 12.1856 47.2642 11.321 48.3235C11.1626 48.5181 10.8888 48.3529 10.9476 48.0994C11.8303 44.1975 13.3648 40.4608 15.447 37.1541C15.5783 36.9459 15.3882 36.6833 15.1822 36.7874L13.349 37.7267C13.1339 37.8376 12.9438 37.5524 13.0909 37.3442C13.4757 36.7942 13.874 36.2556 14.2882 35.7305C16.3365 33.1209 18.722 30.8463 21.3384 29.0107C20.9944 29.271 18.5274 28.4495 17.8122 28.0737C17.7398 28.0353 17.6854 28.0013 17.6537 27.9742C20.1117 26.8516 23.7782 25.48 26.3969 25.3917C25.7654 23.5381 24.1449 22.0692 21.0849 21.7229C28.719 19.7697 33.1121 23.2801 34.7416 23.9975Z" fill="#0691AE"/>
<path d="M35.5246 58.7688C43.3982 58.7688 49.7811 52.1245 49.7811 43.9283C49.7811 35.7322 43.3982 29.0879 35.5246 29.0879C27.6509 29.0879 21.2681 35.7322 21.2681 43.9283C21.2681 52.1245 27.6509 58.7688 35.5246 58.7688Z" fill="white"/>
<path d="M34.7417 29.1104C27.2366 29.5336 21.275 36.0021 21.2705 43.9214C21.266 51.8474 27.2298 58.3227 34.7417 58.746V29.1104Z" fill="#E0E0E0"/>
<path d="M34.9407 35.3506C32.9762 35.4932 31.0614 36.3578 29.631 37.9285C26.6593 41.1831 26.8902 46.2325 30.1471 49.202C31.4643 50.4038 33.0735 51.0805 34.7189 51.248C36.2353 45.8523 36.525 40.3072 34.9407 35.3506Z" fill="#02A486"/>
<path d="M41.4204 48.6858C44.3921 45.4312 44.1612 40.3818 40.9043 37.4123C39.2182 35.8733 37.0522 35.1966 34.9406 35.3505C36.5226 40.3048 36.2352 45.8522 34.7188 51.2479C37.145 51.4923 39.6505 50.6277 41.4204 48.6881V48.6858Z" fill="#04BF8A"/>
<path d="M35.045 48.0384C36.4913 48.1832 37.9851 47.6695 39.0398 46.5129C40.8096 44.5733 40.6739 41.5654 38.7319 39.7932C37.727 38.8766 36.4347 38.4714 35.1786 38.5642C34.0084 38.6502 32.8677 39.164 32.0145 40.101C30.2446 42.0407 30.3804 45.0486 32.3223 46.8207C33.1076 47.5359 34.0673 47.9411 35.0473 48.0384H35.045Z" fill="#263238"/>
</g>
<defs>
<clipPath id="clip0_494_7717">
<rect width="72" height="72" fill="white"/>
</clipPath>
</defs>
</svg>
