<svg width="72" height="72" viewBox="0 0 72 72" fill="none" xmlns="http://www.w3.org/2000/svg">
<g clip-path="url(#clip0_494_7702)">
<path d="M72 36C72 39.3474 71.5428 42.5885 70.6895 45.662C69.8838 48.559 68.725 51.3089 67.2629 53.8619C66.8804 54.5296 66.4776 55.1837 66.0543 55.8242C64.6963 57.8793 63.1324 59.7873 61.3919 61.5187L61.3874 61.5232C60.559 62.347 59.6922 63.1301 58.7891 63.8702C57.8318 64.6533 56.8336 65.3889 55.7971 66.0724C50.3561 69.6643 43.8808 71.8144 36.9121 71.9864C36.8578 71.9909 36.8012 71.9909 36.7446 71.9909H36.7424C36.688 71.9932 36.6315 71.9955 36.5749 71.9932C36.3848 71.9977 36.1924 72 36 72C35.8076 72 35.6107 71.9977 35.4183 71.9955H35.3708C35.1603 71.9909 34.9521 71.9864 34.7416 71.9774C27.6167 71.7329 21.0192 69.4198 15.5285 65.6152C15.5172 65.6085 15.5058 65.5994 15.4945 65.5926C15.2252 65.4048 14.9559 65.2146 14.6911 65.0177C13.5639 64.1894 12.4866 63.2954 11.4636 62.3425C11.4478 62.3267 11.4319 62.3131 11.4161 62.2972C9.34968 60.3667 7.51188 58.1939 5.94568 55.8265C5.84157 55.668 5.73972 55.5119 5.63787 55.3512C4.13731 53.0019 2.90381 50.467 1.97586 47.7895C0.694832 44.0958 0 40.1305 0 36C0 16.1192 16.1192 0 36 0C55.8808 0 72 16.1192 72 36Z" fill="#BF9D7D"/>
<path d="M72 36C72 39.3474 71.5428 42.5885 70.6895 45.662C69.8838 48.559 68.725 51.3089 67.2629 53.8619C66.8804 54.5296 66.4776 55.1837 66.0543 55.8242C64.6963 57.8793 63.1324 59.7873 61.3919 61.5187L61.3874 61.5232C60.559 62.347 59.6922 63.1301 58.7891 63.8702C57.8318 64.6533 56.8336 65.3889 55.7971 66.0724C50.3561 69.6643 43.8808 71.8144 36.9121 71.9864C36.8578 71.9909 36.8012 71.9909 36.7446 71.9909H36.7424C36.688 71.9932 36.6315 71.9955 36.5749 71.9932C36.3848 71.9977 36.1924 72 36 72C35.8076 72 35.6107 71.9977 35.4183 71.9955H35.3708C35.1603 71.9909 34.9521 71.9864 34.7416 71.9774C27.6167 71.7329 21.0192 69.4198 15.5285 65.6152C15.5172 65.6085 15.5058 65.5994 15.4945 65.5926C15.2252 65.4048 14.9559 65.2146 14.6911 65.0177C13.5639 64.1894 12.4866 63.2954 11.4636 62.3425C11.4478 62.3267 11.4319 62.3131 11.4161 62.2972C9.34968 60.3667 7.51188 58.1939 5.94568 55.8265C5.84157 55.668 5.73972 55.5119 5.63787 55.3512C4.13731 53.0019 2.90381 50.467 1.97586 47.7895C0.694832 44.0958 0 40.1305 0 36C0 16.1192 16.1192 0 36 0C55.8808 0 72 16.1192 72 36Z" fill="black" fill-opacity="0.2"/>
<path d="M59.1763 19.7269C58.8097 19.186 58.4204 18.6767 58.0515 18.2195C55.5596 15.1233 52.8482 12.1878 49.9082 9.59863C50.8791 10.4542 53.9413 17.5994 54.231 19.6997C54.6271 22.5673 39.6102 26.8246 39.3408 28.2595C41.6901 29.4002 43.7588 31.324 45.205 33.6552C45.6667 34.3998 46.0673 35.1852 46.391 36.0023C50.2431 32.7635 54.2854 29.7805 58.4951 27.069C59.9255 26.1479 61.1024 25.272 60.7901 23.3074C60.5932 22.0807 59.9346 20.8382 59.1809 19.7291L59.1763 19.7269Z" fill="#7A5AF8"/>
<path d="M14.6414 19.7269C15.0081 19.186 15.3974 18.6767 15.7663 18.2195C18.2582 15.1233 20.9696 12.1878 23.9096 9.59863C22.9387 10.4542 19.8764 17.5994 19.5867 19.6997C19.1907 22.5673 34.2076 26.8246 34.477 28.2595C32.1277 29.4002 30.059 31.324 28.6128 33.6552C28.1511 34.3998 27.7505 35.1852 27.4268 36.0023C23.5747 32.7635 19.5324 29.7805 15.3227 27.069C13.8923 26.1479 12.7154 25.272 13.0277 23.3074C13.2246 22.0807 13.8832 20.8382 14.6369 19.7291L14.6414 19.7269Z" fill="#6938EF"/>
<path d="M70.6895 45.6621C69.8838 48.5591 68.725 51.309 67.2629 53.862C66.8804 54.5297 66.4776 55.1838 66.0543 55.8243C63.155 56.6459 60.7718 59.9005 58.7891 63.8703C57.8318 64.6534 56.8336 65.389 55.7971 66.0725C50.3561 69.6643 43.8808 71.8145 36.9121 71.9865L39.0917 27.8386C39.6733 27.4697 40.2957 27.1415 40.9498 26.8473C45.6869 24.7198 52.1192 24.507 57.0373 25.6885C55.7812 26.0053 53.106 27.0533 52.1758 28.581C63.2343 28.7439 69.155 36.3961 71.4704 41.1242C70.1283 40.9522 68.7861 40.7824 67.4462 40.6104C68.2905 41.3347 69.5036 42.919 70.6895 45.6621Z" fill="#9B8AFB"/>
<path d="M34.3955 27.8386L36.5751 71.9933C36.385 71.9978 36.1926 72.0001 36.0002 72.0001C35.8078 72.0001 35.6109 71.9978 35.4186 71.9955H35.371C35.1605 71.991 34.9523 71.9865 34.7418 71.9774C27.617 71.733 21.0195 69.4199 15.5287 65.6153C13.2224 60.5161 10.3344 56.1276 6.64978 55.6636C6.42345 55.6975 6.18807 55.7541 5.9459 55.8265C5.84179 55.6681 5.73994 55.5119 5.63809 55.3513C4.13752 53.002 2.90403 50.4671 1.97607 47.7896C3.3929 43.7134 5.0021 41.5044 6.04322 40.6104C4.70108 40.7824 3.36121 40.9522 2.01908 41.1242C4.33443 36.3961 10.253 28.7439 21.3137 28.581C20.3835 27.0533 17.7083 26.0053 16.4499 25.6885C21.3703 24.507 27.8026 24.7198 32.5374 26.8473C33.1915 27.1415 33.8139 27.4697 34.3955 27.8386Z" fill="#5925DC"/>
<path d="M36.7427 28.0987V71.9908C36.6884 71.993 36.6318 71.9953 36.5752 71.993C36.3851 71.9976 36.1927 71.9998 36.0003 71.9998C35.8079 71.9998 35.611 71.9976 35.4186 71.9953H35.3711C35.1606 71.9908 34.9524 71.9863 34.7419 71.9772C27.6171 71.7328 21.0195 69.4197 15.5288 65.6151C15.5175 65.6083 15.5062 65.5992 15.4948 65.5924C15.2255 65.4046 14.9562 65.2145 14.6914 65.0176C13.5642 64.1892 12.4869 63.2952 11.4639 62.3424C11.74 61.9712 11.9935 61.652 12.2085 61.3895L11.4164 62.2971C9.34999 60.3665 7.51219 58.1937 5.94599 55.8263C5.84188 55.6679 5.74003 55.5117 5.63818 55.351C8.73664 46.9135 14.1504 42.5408 14.3179 42.405L7.96259 45.7207C13.2542 34.8637 23.0724 32.0232 23.0724 32.0232L16.3209 31.9101C22.8755 28.1123 31.089 28.2254 31.089 28.2254L26.3066 26.2563C28.8913 26.3061 30.9532 26.5506 32.5375 26.8471C35.2195 27.3473 36.5435 27.9968 36.7427 28.0987Z" fill="#6938EF"/>
<path d="M67.2629 53.8618C66.8804 54.5295 66.4776 55.1835 66.0543 55.8241C64.6963 57.8791 63.1324 59.7871 61.3919 61.5185L61.2788 61.3895C61.315 61.4325 61.3489 61.4755 61.3874 61.523C60.559 62.3469 59.6922 63.13 58.7891 63.8701C57.8318 64.6532 56.8337 65.3887 55.7971 66.0723C50.3561 69.6641 43.8808 71.8143 36.9121 71.9863C36.8578 71.9908 36.8012 71.9908 36.7446 71.9908V28.0987C36.9438 27.9968 38.2678 27.3473 40.9498 26.8471C42.5341 26.5506 44.596 26.3061 47.1807 26.2563L42.3983 28.2254C42.3983 28.2254 50.6141 28.1123 57.1686 31.9101L50.4172 32.0232C50.4172 32.0232 60.2354 34.8637 65.5247 45.7207L59.1716 42.405C59.3188 42.5249 64.1124 46.3906 67.2629 53.8618Z" fill="#7A5AF8"/>
<path d="M36.7423 61.9871C44.1123 61.9871 50.0867 56.0126 50.0867 48.6427C50.0867 41.2728 44.1123 35.2983 36.7423 35.2983C29.3724 35.2983 23.3979 41.2728 23.3979 48.6427C23.3979 56.0126 29.3724 61.9871 36.7423 61.9871Z" fill="white"/>
<path d="M36.7422 56.8946C41.2997 56.8946 44.9942 53.2 44.9942 48.6426C44.9942 44.0852 41.2997 40.3906 36.7422 40.3906C32.1848 40.3906 28.4902 44.0852 28.4902 48.6426C28.4902 53.2 32.1848 56.8946 36.7422 56.8946Z" fill="#FEB173"/>
<path d="M36.7426 53.2171C39.2688 53.2171 41.3167 51.1692 41.3167 48.643C41.3167 46.1168 39.2688 44.0688 36.7426 44.0688C34.2164 44.0688 32.1685 46.1168 32.1685 48.643C32.1685 51.1692 34.2164 53.2171 36.7426 53.2171Z" fill="#263238"/>
<path d="M46.2642 38.6503C40.4928 33.3837 31.546 33.7933 26.2816 39.5625C24.1518 41.8959 22.95 44.7499 22.6558 47.6673C33.0556 44.4195 42.7652 45.7956 50.8315 48.0634C50.5758 44.5824 49.0458 41.1875 46.2642 38.6503Z" fill="#5925DC"/>
</g>
<defs>
<clipPath id="clip0_494_7702">
<rect width="72" height="72" fill="white"/>
</clipPath>
</defs>
</svg>
