<svg width="72" height="72" viewBox="0 0 72 72" fill="none" xmlns="http://www.w3.org/2000/svg">
<g clip-path="url(#clip0_494_7626)">
<path d="M72 36C72 42.8035 70.1124 49.1656 66.8305 54.593C63.8655 59.5066 59.7552 63.6507 54.8708 66.6631C54.2778 67.0298 53.6712 67.3783 53.0533 67.7111C51.6025 68.4942 50.0929 69.1799 48.5289 69.7593H48.5266C45.2855 70.9634 41.8225 71.7148 38.2147 71.9321C37.4836 71.9774 36.7458 72 36.0011 72H35.9672C35.2339 72 34.5073 71.9774 33.7876 71.9321C30.1662 71.7126 26.6896 70.9589 23.4349 69.7458C21.8845 69.1686 20.3839 68.4874 18.9444 67.7111C18.331 67.3806 17.7267 67.0321 17.136 66.6677C12.2493 63.6552 8.13681 59.5089 5.16727 54.593C1.88765 49.1656 0 42.8035 0 36C0 16.1192 16.1174 0 36.0011 0C55.8848 0 72 16.1192 72 36Z" fill="#BF9D7D"/>
<path d="M72 36C72 42.8035 70.1124 49.1656 66.8305 54.593C63.8655 59.5066 59.7552 63.6507 54.8708 66.6631C54.2778 67.0298 53.6712 67.3783 53.0533 67.7111C51.6025 68.4942 50.0929 69.1799 48.5289 69.7593H48.5266C45.2855 70.9634 41.8225 71.7148 38.2147 71.9321C37.4836 71.9774 36.7458 72 36.0011 72H35.9672C35.2339 72 34.5073 71.9774 33.7876 71.9321C30.1662 71.7126 26.6896 70.9589 23.4349 69.7458C21.8845 69.1686 20.3839 68.4874 18.9444 67.7111C18.331 67.3806 17.7267 67.0321 17.136 66.6677C12.2493 63.6552 8.13681 59.5089 5.16727 54.593C1.88765 49.1656 0 42.8035 0 36C0 16.1192 16.1174 0 36.0011 0C55.8848 0 72 16.1192 72 36Z" fill="black" fill-opacity="0.2"/>
<path d="M19.3472 21.6394C13.7612 28.9249 11.5703 45.662 11.8192 48.3938H36.035V14.759H35.657C35.657 14.759 28.919 9.15504 19.3472 21.6394Z" fill="black"/>
<path d="M52.6527 21.6394C58.2387 28.9249 60.4296 45.662 60.1806 48.3938H35.9648V14.759H36.3428C36.3428 14.759 43.0809 9.15504 52.6527 21.6394Z" fill="black"/>
<path d="M39.2986 54.9644H32.6353V61.6184H39.2986V54.9644Z" fill="#FDDCAB"/>
<path d="M36.062 61.6182V71.932H33.7873C30.166 71.7125 26.6894 70.9588 23.4347 69.7457C21.8843 69.1685 20.3837 68.4873 18.9442 67.711C18.3308 67.3805 17.7265 67.032 17.1357 66.6676C19.553 64.9746 23.1133 63.2772 28.2987 62.2587C28.2987 62.2587 28.3236 62.2541 28.3666 62.2451C28.8351 62.1546 29.3195 62.0686 29.8151 61.9871C30.7092 61.8445 31.6485 61.72 32.6353 61.6182H36.062Z" fill="#FDDCAB"/>
<path d="M54.8706 66.6631C54.2776 67.0297 53.671 67.3783 53.0531 67.711C51.6023 68.4941 50.0926 69.1798 48.5286 69.7592H48.5264C45.2852 70.9633 41.8223 71.7147 38.2145 71.932H36.062V61.6182H39.2964C40.29 61.72 41.2383 61.8468 42.1414 61.9916C42.662 62.0753 43.1667 62.1659 43.6579 62.2632C48.8387 63.2817 52.4239 64.9746 54.8706 66.6631Z" fill="#FFEAD5"/>
<path d="M35.9877 69.3951V72.0001H35.9673C35.234 72.0001 34.5075 71.9775 33.7877 71.9322C30.1663 71.7127 26.6898 70.959 23.4351 69.7459C25.0737 67.0594 27.6766 62.8541 28.299 62.2589C28.299 62.2589 28.3239 62.2544 28.3669 62.2453C28.6023 62.1955 29.3922 62.0348 29.8155 61.9873C29.8155 61.9873 27.3462 69.1054 35.9673 69.3951H35.9877Z" fill="#001033"/>
<path d="M48.5267 69.7595C45.2856 70.9635 41.8226 71.715 38.2148 71.9322C37.4837 71.9775 36.7459 72.0001 36.0012 72.0001H35.9673V69.3951H35.9877C36.0126 69.3928 36.0374 69.3928 36.0623 69.3905C44.4708 69.0692 42.2074 62.1887 42.1418 61.9918C42.1395 61.9896 42.1395 61.9873 42.1395 61.9873C42.642 62.0439 43.6537 62.2589 43.6537 62.2589L43.6582 62.2634C44.2874 62.8745 46.8926 67.0775 48.5267 69.7595Z" fill="#022859"/>
<path d="M15.6239 35.0405C16.0245 39.6328 18.9284 39.9089 18.9284 39.9089L18.9714 30.7154C18.9714 30.7154 15.2187 30.446 15.6239 35.0405Z" fill="#FDDCAB"/>
<path d="M18.8379 20.499V39.5062C18.8379 48.9871 26.5243 56.671 36.0033 56.671V20.499H18.8379Z" fill="#FDDCAB"/>
<path d="M56.3036 34.9023C55.903 39.4946 52.9991 39.7707 52.9991 39.7707L52.9561 30.5772C52.9561 30.5772 56.7087 30.3079 56.3036 34.9023Z" fill="#FFEAD5"/>
<path d="M36.0034 20.499V56.6733C45.4847 56.6733 53.1688 48.9871 53.1688 39.5085V20.499H36.0034Z" fill="#FFEAD5"/>
<path d="M54.3956 25.3853C54.3956 26.3019 54.3277 27.2072 54.1964 28.0876H17.9282C17.7969 27.2072 17.729 26.3019 17.729 25.3853C17.729 24.102 17.8603 22.8481 18.1115 21.6372C19.843 13.3106 27.2193 7.05029 36.0623 7.05029C44.9053 7.05029 52.2838 13.3106 54.0131 21.6372C54.2666 22.8481 54.3978 24.0997 54.3978 25.3853H54.3956Z" fill="#001033"/>
<path d="M18.7793 25.0119C17.2175 27.2367 18.8381 30.7109 18.8381 30.7109L29.691 26.7003C29.691 26.7003 20.341 22.7871 18.7793 25.0096V25.0119Z" fill="black"/>
<path d="M54.4295 21.6396H17.6384C16.6597 21.6396 15.8662 22.4331 15.8662 23.4118V26.3179C15.8662 27.2966 16.6597 28.09 17.6384 28.09H54.4295C55.4082 28.09 56.2017 27.2966 56.2017 26.3179V23.4118C56.2017 22.4331 55.4082 21.6396 54.4295 21.6396Z" fill="#022859"/>
</g>
<defs>
<clipPath id="clip0_494_7626">
<rect width="72" height="72" fill="white"/>
</clipPath>
</defs>
</svg>
