<svg width="72" height="72" viewBox="0 0 72 72" fill="none" xmlns="http://www.w3.org/2000/svg">
<g clip-path="url(#clip0_494_7681)">
<path d="M72 36C72 42.8035 70.1124 49.1656 66.8305 54.593C64.0352 59.226 60.2214 63.1731 55.7015 66.1358C55.4276 66.3146 55.1492 66.4911 54.8708 66.6631C54.2778 67.0298 53.6712 67.3783 53.0533 67.7111C52.9628 67.7608 52.8723 67.8084 52.7817 67.8559C51.4147 68.5802 49.9955 69.2161 48.5289 69.7593H48.5266C45.2855 70.9634 41.8225 71.7148 38.2147 71.9321C37.6036 71.9706 36.9857 71.9909 36.3633 71.9977C36.3203 71.9977 36.275 71.9977 36.232 71.9977C36.155 71.9977 36.0781 71.9977 36.0011 71.9977H35.9672C35.8336 71.9977 35.7024 71.9977 35.5711 71.9977C34.9713 71.9909 34.3783 71.9683 33.7876 71.9321C30.1662 71.7126 26.6896 70.9589 23.4349 69.7458C22.172 69.275 20.9429 68.7363 19.7547 68.132C19.4808 67.9962 19.2115 67.8559 18.9444 67.7111C18.331 67.3806 17.7267 67.0321 17.136 66.6677C16.8395 66.4843 16.5475 66.2988 16.2555 66.1086C11.7559 63.1505 7.95574 59.2101 5.16727 54.593C1.88765 49.1656 0 42.8035 0 36C0 16.1192 16.1174 0 36.0011 0C55.8848 0 72 16.1192 72 36Z" fill="#BF9D7D"/>
<path d="M72 36C72 42.8035 70.1124 49.1656 66.8305 54.593C64.0352 59.226 60.2214 63.1731 55.7015 66.1358C55.4276 66.3146 55.1492 66.4911 54.8708 66.6631C54.2778 67.0298 53.6712 67.3783 53.0533 67.7111C52.9628 67.7608 52.8723 67.8084 52.7817 67.8559C51.4147 68.5802 49.9955 69.2161 48.5289 69.7593H48.5266C45.2855 70.9634 41.8225 71.7148 38.2147 71.9321C37.6036 71.9706 36.9857 71.9909 36.3633 71.9977C36.3203 71.9977 36.275 71.9977 36.232 71.9977C36.155 71.9977 36.0781 71.9977 36.0011 71.9977H35.9672C35.8336 71.9977 35.7024 71.9977 35.5711 71.9977C34.9713 71.9909 34.3783 71.9683 33.7876 71.9321C30.1662 71.7126 26.6896 70.9589 23.4349 69.7458C22.172 69.275 20.9429 68.7363 19.7547 68.132C19.4808 67.9962 19.2115 67.8559 18.9444 67.7111C18.331 67.3806 17.7267 67.0321 17.136 66.6677C16.8395 66.4843 16.5475 66.2988 16.2555 66.1086C11.7559 63.1505 7.95574 59.2101 5.16727 54.593C1.88765 49.1656 0 42.8035 0 36C0 16.1192 16.1174 0 36.0011 0C55.8848 0 72 16.1192 72 36Z" fill="black" fill-opacity="0.2"/>
<path d="M41.5259 59.8214V52.0356H30.4059V59.8214C30.4059 59.8214 20.7572 61.082 16.2554 66.1088C16.5473 66.2989 16.8393 66.4845 17.1358 66.6679C17.7266 67.0322 18.3309 67.3808 18.9443 67.7112C20.3838 68.4876 21.8844 69.1688 23.4348 69.7459C26.6895 70.9591 30.166 71.7127 33.7874 71.9323C34.3782 71.9685 34.9712 71.9911 35.571 71.9979C35.7022 71.9979 35.8335 71.9979 35.967 71.9979H36.001C36.121 71.9979 36.2432 71.9979 36.3631 71.9979C36.9856 71.9911 37.6035 71.9708 38.2146 71.9323C41.8224 71.715 45.2853 70.9636 48.5265 69.7595H48.5287C50.0927 69.1801 51.6024 68.4943 53.0532 67.7112C53.6711 67.3785 54.2777 67.03 54.8707 66.6633C55.1491 66.4913 55.4275 66.3148 55.7014 66.136C51.2108 61.0866 41.5259 59.8214 41.5259 59.8214Z" fill="#FDDCAB"/>
<path d="M15.6239 35.0405C16.0245 39.6328 18.9284 39.9089 18.9284 39.9089L18.9714 30.7154C18.9714 30.7154 15.2187 30.446 15.6239 35.0405Z" fill="#FDDCAB"/>
<path d="M36.0033 12.3442C26.522 12.3442 18.8379 20.0304 18.8379 29.5091V39.5061C18.8379 48.987 26.5243 56.6709 36.0033 56.6709L36.0033 12.3442Z" fill="#FDDCAB"/>
<path d="M56.3011 34.9023C55.9005 39.4946 52.9966 39.7707 52.9966 39.7707L52.9536 30.5772C52.9536 30.5772 56.7063 30.3079 56.3011 34.9023Z" fill="#FFEAD5"/>
<path d="M36.0034 12.3442L36.0034 56.6732C45.4847 56.6732 53.1688 48.987 53.1688 39.5083V29.5113C53.1688 20.0304 45.4824 12.3465 36.0034 12.3465V12.3442Z" fill="#FFEAD5"/>
<path d="M55.7014 66.1359L52.7817 67.856C51.4146 68.5802 49.9955 69.2162 48.5288 69.7594H48.5265C45.2854 70.9635 41.8225 71.7149 38.2146 71.9322C37.6035 71.9707 36.9856 71.991 36.3632 71.9978C36.3202 71.9978 36.2749 71.9978 36.2319 71.9978V66.8466H36.2387C36.3157 66.8466 36.3858 66.8398 36.4651 66.8398C43.0107 66.704 44.199 60.1562 44.199 60.1562C44.3733 60.1676 44.543 60.1834 44.7105 60.2083C51.3467 61.2313 55.7014 66.1359 55.7014 66.1359Z" fill="#FEC84B"/>
<path d="M36.2319 66.8466V71.9978C36.1549 71.9978 36.0779 71.9978 36.001 71.9978H35.967C35.8335 71.9978 35.7022 71.9978 35.571 71.9978C34.9712 71.991 34.3782 71.9684 33.7874 71.9322C30.166 71.7126 26.6895 70.959 23.4348 69.7458C22.1718 69.2751 20.9428 68.7364 19.7545 68.1321L16.2554 66.1087C16.2554 66.1087 20.4788 61.1725 27.7555 60.2083C27.9253 60.1857 28.0905 60.1676 28.2671 60.1562C28.2671 60.1562 29.4553 66.704 35.9987 66.8398C36.078 66.8398 36.1504 66.8466 36.2273 66.8466H36.2319Z" fill="#FDB022"/>
<path d="M31.7777 32.4941H26.2031C24.3969 32.4941 22.937 33.8453 22.937 35.5134C22.937 37.1814 24.3991 38.5326 26.2031 38.5326H31.7777C33.5816 38.5326 35.0438 37.1792 35.0438 35.5134C35.0438 33.8476 33.5816 32.4941 31.7777 32.4941Z" fill="white"/>
<path d="M31.6782 36.0996H36.0035V34.9272H31.7552L31.6782 36.0996Z" fill="white"/>
<path d="M40.6703 38.5351H46.245C48.0512 38.5351 49.5111 37.1839 49.5111 35.5158C49.5111 33.8478 48.0489 32.4966 46.245 32.4966H40.6703C38.8664 32.4966 37.4043 33.85 37.4043 35.5158C37.4043 37.1816 38.8664 38.5351 40.6703 38.5351Z" fill="white"/>
<path d="M40.3264 34.9297H36.0034V36.1021H40.2495L40.3264 34.9297Z" fill="white"/>
<path d="M49.2691 7.97121C49.4841 6.95272 49.3528 4.81165 35.8677 5.6287V16.9769C35.8677 16.9769 50.5388 21.9991 54.2394 19.8241C54.2394 19.8241 53.1508 15.6212 51.3174 13.0206C49.4841 10.4201 49.0563 8.99196 49.2691 7.97347V7.97121Z" fill="#026E78"/>
<path d="M22.4665 7.97112C22.6815 8.99187 22.2514 10.4177 20.4181 13.0183C18.5825 15.6188 17.4961 19.8217 17.4961 19.8217C21.1967 21.9968 35.8656 16.9745 35.8656 16.9745V5.62634C22.3827 4.81156 22.2492 6.95264 22.4642 7.96886L22.4665 7.97112Z" fill="#026E78"/>
<path d="M15.6062 22.7209C16.0905 23.8164 15.6311 24.9865 14.9611 25.9054C14.2889 26.8288 15.3255 28.4493 15.3255 28.4493L15.158 28.85C14.685 29.7621 15.6084 30.3845 15.6084 30.3845C15.6084 30.3845 18.9944 28.5512 22.9689 27.4852C26.9456 26.4214 36.024 25.6044 36.024 25.6044V16.9767C28.1452 16.9133 21.543 19.5863 18.5214 19.6157C15.5021 19.6451 15.1241 21.621 15.6084 22.7209H15.6062Z" fill="#015364"/>
<path d="M57.1638 25.9054C56.4915 24.9842 56.0321 23.8164 56.5164 22.7209C57.0008 21.621 56.6251 19.6474 53.6035 19.6157C50.5819 19.5863 43.828 16.9133 35.9492 16.9767V25.6044C35.9492 25.6044 45.1792 26.4214 49.156 27.4852C53.1304 28.5512 56.5164 30.3845 56.5164 30.3845C56.5164 30.3845 57.4399 29.7621 56.9669 28.85L56.7994 28.4493C56.7994 28.4493 57.8337 26.8288 57.166 25.9054H57.1638Z" fill="#015364"/>
<path d="M59.2302 33.9989C57.089 34.1506 56.3512 31.3509 56.3512 31.3509C58.103 25.335 38.3891 24.7058 36.0895 24.6515V24.647C36.0895 24.647 36.0487 24.647 35.9786 24.647C35.9084 24.647 35.8677 24.647 35.8677 24.647V24.6515C33.5681 24.7036 13.8542 25.3328 15.606 31.3509C15.606 31.3509 14.8681 34.1528 12.727 33.9989C10.5858 33.8473 20.0626 36.7285 20.1395 31.3509C20.1395 31.3509 21.4364 34.2886 24.3403 34.9088C24.3403 34.9088 24.2091 32.2426 26.6829 30.7918C26.6829 30.7918 29.3831 33.7703 28.2379 35.7575C28.2379 35.7575 35.0415 35.5583 35.9808 31.4414C36.9179 35.5583 43.7238 35.7575 43.7238 35.7575C42.5786 33.7703 45.2788 30.7918 45.2788 30.7918C47.7504 32.2426 47.6213 34.9088 47.6213 34.9088C50.5252 34.2886 51.8222 31.3509 51.8222 31.3509C51.8991 36.7307 61.3736 33.8495 59.2324 33.9989H59.2302Z" fill="#1F1F24"/>
</g>
<defs>
<clipPath id="clip0_494_7681">
<rect width="72" height="72" fill="white"/>
</clipPath>
</defs>
</svg>
